      <svg
        width="573"
        height="174"
        viewBox="0 0 573 174"
        fill="none"
        xmlns="http://www.w3.org/2000/svg"
      >
        <mask
          id="path-1-outside-1_0_1"
          maskUnits="userSpaceOnUse"
          x="148.324"
          y="17.5478"
          width="126.404"
          height="136.147"
          fill="black"
        >
          <rect
            fill="white"
            x="148.324"
            y="17.5478"
            width="126.404"
            height="136.147"
          />
          <path d="M222.424 131.768C218.822 132.829 215.125 133.606 211.331 134.101C207.511 134.515 203.894 134.469 200.482 133.963C197.043 133.375 194.013 132.135 191.391 130.24C188.769 128.346 186.843 125.58 185.612 121.942C184.162 117.658 184.2 114.181 185.726 111.509C187.225 108.757 190.43 106.657 195.341 105.211C198.206 104.368 201.399 103.694 204.919 103.191C208.44 102.687 211.223 102.134 213.27 101.532C215.152 100.977 216.448 100.285 217.157 99.4537C217.921 98.5179 218.152 97.6054 217.851 96.7162C217.55 95.8271 216.949 95.2486 216.048 94.9805C215.147 94.7125 213.851 94.6054 212.159 94.6593C210.467 94.7131 208.229 94.8832 205.445 95.1696C199.359 95.8061 194.256 95.7536 190.134 95.0118C185.985 94.1893 182.613 92.6045 180.018 90.2576C177.478 87.8058 175.51 84.5188 174.115 80.3965C172.583 75.8701 172.156 71.6848 172.835 67.8405C173.487 63.9154 174.903 60.3874 177.084 57.2564C179.319 54.0205 182.046 51.1731 185.265 48.7143C188.456 46.1747 191.866 44.0151 195.494 42.2356C199.123 40.456 202.656 39.0601 206.094 38.0477C213.789 35.7818 220.352 35.3601 225.785 36.7825C231.272 38.1 234.918 41.4261 236.724 46.7608C238.146 50.9639 237.958 54.7968 236.16 58.2596C234.334 61.6416 230.597 64.1642 224.949 65.8274C223.066 66.3818 220.869 66.9397 218.359 67.5012C215.849 68.0627 213.461 68.588 211.196 69.0772C208.904 69.4855 207.103 69.8825 205.793 70.2682C203.828 70.8467 202.437 71.5231 201.619 72.2973C200.855 72.9666 200.624 73.7458 200.925 74.6349C201.144 75.2816 201.649 75.8438 202.441 76.3217C203.206 76.7188 204.42 76.9833 206.085 77.1152C207.832 77.223 210.206 77.1905 213.209 77.0175C220.714 76.5852 226.923 76.9788 231.837 78.1985C236.723 79.3373 240.559 81.2297 243.345 83.8758C246.213 86.4978 248.331 89.8296 249.699 93.871C251.532 99.2865 251.591 104.513 249.876 109.552C248.215 114.485 245.025 118.891 240.307 122.769C235.588 126.647 229.627 129.647 222.424 131.768Z" />
        </mask>
        <path
          d="M222.424 131.768C218.822 132.829 215.125 133.606 211.331 134.101C207.511 134.515 203.894 134.469 200.482 133.963C197.043 133.375 194.013 132.135 191.391 130.24C188.769 128.346 186.843 125.58 185.612 121.942C184.162 117.658 184.2 114.181 185.726 111.509C187.225 108.757 190.43 106.657 195.341 105.211C198.206 104.368 201.399 103.694 204.919 103.191C208.44 102.687 211.223 102.134 213.27 101.532C215.152 100.977 216.448 100.285 217.157 99.4537C217.921 98.5179 218.152 97.6054 217.851 96.7162C217.55 95.8271 216.949 95.2486 216.048 94.9805C215.147 94.7125 213.851 94.6054 212.159 94.6593C210.467 94.7131 208.229 94.8832 205.445 95.1696C199.359 95.8061 194.256 95.7536 190.134 95.0118C185.985 94.1893 182.613 92.6045 180.018 90.2576C177.478 87.8058 175.51 84.5188 174.115 80.3965C172.583 75.8701 172.156 71.6848 172.835 67.8405C173.487 63.9154 174.903 60.3874 177.084 57.2564C179.319 54.0205 182.046 51.1731 185.265 48.7143C188.456 46.1747 191.866 44.0151 195.494 42.2356C199.123 40.456 202.656 39.0601 206.094 38.0477C213.789 35.7818 220.352 35.3601 225.785 36.7825C231.272 38.1 234.918 41.4261 236.724 46.7608C238.146 50.9639 237.958 54.7968 236.16 58.2596C234.334 61.6416 230.597 64.1642 224.949 65.8274C223.066 66.3818 220.869 66.9397 218.359 67.5012C215.849 68.0627 213.461 68.588 211.196 69.0772C208.904 69.4855 207.103 69.8825 205.793 70.2682C203.828 70.8467 202.437 71.5231 201.619 72.2973C200.855 72.9666 200.624 73.7458 200.925 74.6349C201.144 75.2816 201.649 75.8438 202.441 76.3217C203.206 76.7188 204.42 76.9833 206.085 77.1152C207.832 77.223 210.206 77.1905 213.209 77.0175C220.714 76.5852 226.923 76.9788 231.837 78.1985C236.723 79.3373 240.559 81.2297 243.345 83.8758C246.213 86.4978 248.331 89.8296 249.699 93.871C251.532 99.2865 251.591 104.513 249.876 109.552C248.215 114.485 245.025 118.891 240.307 122.769C235.588 126.647 229.627 129.647 222.424 131.768Z"
          fill="#9D9AFF"
        />
        <path
          d="M211.331 134.101L212.77 143.926L212.88 143.914L212.991 143.899L211.331 134.101ZM200.482 133.963L199.06 143.698L199.173 143.717L199.285 143.734L200.482 133.963ZM191.391 130.24L197.231 122.361L191.391 130.24ZM185.726 111.509L194.596 116.54L194.643 116.457L194.689 116.373L185.726 111.509ZM204.919 103.191L206.703 112.972L206.703 112.972L204.919 103.191ZM217.157 99.4537L225.012 105.928L225.08 105.849L225.146 105.768L217.157 99.4537ZM216.048 94.9805L213.395 104.429L213.395 104.429L216.048 94.9805ZM205.445 95.1696L204.062 85.3392L204.053 85.34L204.044 85.341L205.445 95.1696ZM190.134 95.0118L188.436 104.696L188.527 104.715L188.619 104.731L190.134 95.0118ZM180.018 90.2576L173.031 97.177L173.153 97.2953L173.28 97.4097L180.018 90.2576ZM172.835 67.8405L182.804 69.83L182.812 69.7817L182.82 69.7333L172.835 67.8405ZM177.084 57.2564L185.504 62.999L185.515 62.984L185.525 62.9689L177.084 57.2564ZM185.265 48.7143L191.654 56.577L191.73 56.5191L191.804 56.4599L185.265 48.7143ZM195.494 42.2356L200.265 51.0994L195.494 42.2356ZM225.785 36.7825L223.468 46.3248L223.572 46.3521L223.677 46.3772L225.785 36.7825ZM236.16 58.2596L245.139 63.0932L245.175 63.0269L245.21 62.96L236.16 58.2596ZM218.359 67.5012L215.798 57.8622L215.798 57.8622L218.359 67.5012ZM211.196 69.0772L213.323 78.8033L213.505 78.771L213.685 78.7321L211.196 69.0772ZM201.619 72.2973L208.507 79.7515L208.644 79.6313L208.777 79.5062L201.619 72.2973ZM202.441 76.3217L197.333 84.685L197.624 84.8604L197.925 85.0169L202.441 76.3217ZM206.085 77.1152L205.597 86.9671L205.687 86.9742L205.777 86.9798L206.085 77.1152ZM213.209 77.0175L212.285 67.1502L212.285 67.1502L213.209 77.0175ZM231.837 78.1985L229.651 87.7741L229.724 87.7922L229.797 87.8094L231.837 78.1985ZM243.345 83.8758L236.419 90.8537L236.492 90.9225L236.565 90.99L243.345 83.8758ZM249.876 109.552L240.268 106.157L240.263 106.173L240.257 106.188L249.876 109.552ZM240.307 122.769L246.964 130.419L240.307 122.769ZM219.218 122.296C216.127 123.206 212.947 123.876 209.672 124.303L212.991 143.899C217.302 143.337 221.517 142.451 225.63 141.24L219.218 122.296ZM209.893 124.277C206.84 124.607 204.115 124.553 201.679 124.191L199.285 143.734C203.674 144.385 208.182 144.423 212.77 143.926L209.893 124.277ZM201.905 124.227C199.923 123.889 198.435 123.231 197.231 122.361L185.551 138.119C189.591 141.038 194.163 142.862 199.06 143.698L201.905 124.227ZM197.231 122.361C196.708 121.983 195.9 121.172 195.204 119.118L176.019 124.767C177.786 129.987 180.831 134.708 185.551 138.119L197.231 122.361ZM195.204 119.118C194.74 117.746 194.662 116.928 194.667 116.55C194.67 116.234 194.725 116.315 194.596 116.54L176.856 106.478C173.47 112.405 174.075 119.025 176.019 124.767L195.204 119.118ZM194.689 116.373C194.55 116.629 194.514 116.503 195.073 116.137C195.663 115.75 196.742 115.215 198.548 114.683L192.135 95.7391C186.168 97.4961 180.026 100.652 176.763 106.646L194.689 116.373ZM198.548 114.683C200.872 113.999 203.58 113.418 206.703 112.972L203.136 93.4094C199.218 93.9695 195.54 94.7363 192.135 95.7391L198.548 114.683ZM206.703 112.972C210.436 112.438 213.762 111.803 216.476 111.004L210.063 92.0597C208.684 92.4658 206.443 92.9366 203.136 93.4094L206.703 112.972ZM216.476 111.004C218.967 110.27 222.479 108.897 225.012 105.928L209.302 92.979C209.932 92.241 210.495 91.9334 210.579 91.8886C210.679 91.8351 210.551 91.9161 210.063 92.0597L216.476 111.004ZM225.146 105.768C227.264 103.172 229.142 98.9077 227.444 93.8915L208.258 99.541C207.789 98.1549 207.751 96.6996 208.081 95.3977C208.385 94.1968 208.917 93.4477 209.168 93.1394L225.146 105.768ZM227.444 93.8915C226.093 89.9 222.932 86.791 218.702 85.5324L213.395 104.429C212.429 104.141 211.258 103.566 210.197 102.544C209.141 101.527 208.555 100.417 208.258 99.541L227.444 93.8915ZM218.702 85.5324C216.177 84.7814 213.552 84.7148 211.499 84.7802L212.818 104.538C213.382 104.52 213.72 104.535 213.877 104.548C213.949 104.554 213.944 104.557 213.876 104.545C213.81 104.534 213.641 104.502 213.395 104.429L218.702 85.5324ZM211.499 84.7802C209.46 84.845 206.952 85.0418 204.062 85.3392L206.828 105C209.505 104.725 211.473 104.581 212.818 104.538L211.499 84.7802ZM204.044 85.341C198.514 85.9195 194.465 85.7994 191.649 85.2927L188.619 104.731C194.046 105.708 200.205 105.693 206.846 104.998L204.044 85.341ZM191.831 85.3272C189.161 84.7979 187.66 83.9232 186.756 83.1056L173.28 97.4097C177.565 101.286 182.808 103.581 188.436 104.696L191.831 85.3272ZM187.005 83.3383C185.918 82.289 184.71 80.535 183.707 77.5717L164.522 83.2213C166.309 88.5025 169.037 93.3226 173.031 97.177L187.005 83.3383ZM183.707 77.5717C182.597 74.292 182.459 71.7821 182.804 69.83L162.867 65.851C161.853 71.5874 162.568 77.4482 164.522 83.2213L183.707 77.5717ZM182.82 69.7333C183.251 67.1388 184.156 64.9341 185.504 62.999L168.664 51.5138C165.65 55.8407 163.723 60.6919 162.85 65.9476L182.82 69.7333ZM185.525 62.9689C187.182 60.5698 189.212 58.4427 191.654 56.577L178.876 40.8517C174.881 43.9035 171.457 47.4711 168.643 51.5439L185.525 62.9689ZM191.804 56.4599C194.459 54.3472 197.277 52.5646 200.265 51.0994L190.724 33.3718C186.454 35.4657 182.453 38.0023 178.725 40.9688L191.804 56.4599ZM200.265 51.0994C203.457 49.5335 206.468 48.3537 209.3 47.5198L202.888 28.5756C198.844 29.7664 194.788 31.3786 190.724 33.3718L200.265 51.0994ZM209.3 47.5198C215.975 45.5542 220.514 45.5514 223.468 46.3248L228.102 27.2403C220.191 25.1689 211.602 26.0095 202.888 28.5756L209.3 47.5198ZM223.677 46.3772C225.595 46.8378 226.439 47.5411 227.131 49.5855L246.316 43.936C243.397 35.3111 236.948 29.3622 227.893 27.1878L223.677 46.3772ZM227.131 49.5855C227.809 51.5906 227.569 52.6757 227.11 53.5592L245.21 62.96C248.348 56.9179 248.483 50.3371 246.316 43.936L227.131 49.5855ZM227.18 53.426C227.052 53.6639 226.126 55.0645 221.743 56.3553L228.155 75.2995C235.068 73.2639 241.616 69.6192 245.139 63.0932L227.18 53.426ZM221.743 56.3553C220.126 56.8314 218.153 57.3355 215.798 57.8622L220.92 77.1402C223.586 76.544 226.006 75.9322 228.155 75.2995L221.743 56.3553ZM215.798 57.8622C213.309 58.4189 210.946 58.9389 208.707 59.4223L213.685 78.7321C215.976 78.2372 218.388 77.7065 220.92 77.1402L215.798 57.8622ZM209.069 59.3511C206.625 59.7864 204.41 60.2592 202.587 60.7961L208.999 79.7403C209.795 79.5059 211.182 79.1847 213.323 78.8033L209.069 59.3511ZM202.587 60.7961C200.132 61.5189 196.949 62.7344 194.461 65.0885L208.777 79.5062C208.509 79.7589 208.289 79.9158 208.167 79.9959C208.044 80.0769 207.984 80.1034 208.016 80.0882C208.045 80.0737 208.138 80.031 208.309 79.9672C208.478 79.9039 208.705 79.8269 208.999 79.7403L202.587 60.7961ZM194.731 64.8431C193.33 66.0709 191.885 67.8738 191.151 70.3452C190.398 72.884 190.623 75.3632 191.332 77.4597L210.518 71.8102C210.926 73.0176 211.116 74.6626 210.594 76.4222C210.091 78.1144 209.144 79.1931 208.507 79.7515L194.731 64.8431ZM191.332 77.4597C192.552 81.0649 195.132 83.3565 197.333 84.685L207.549 67.9585C208.167 68.3312 209.735 69.4982 210.518 71.8102L191.332 77.4597ZM197.925 85.0169C200.644 86.4291 203.611 86.8098 205.597 86.9671L206.574 67.2633C206.329 67.2439 206.143 67.2229 206.009 67.2045C205.874 67.1859 205.813 67.1728 205.815 67.1732C205.818 67.1738 205.842 67.1792 205.886 67.191C205.93 67.2028 205.999 67.2226 206.089 67.2528C206.26 67.31 206.567 67.4238 206.957 67.6265L197.925 85.0169ZM205.777 86.9798C208.125 87.1247 210.968 87.0671 214.132 86.8848L212.285 67.1502C209.445 67.3138 207.539 67.3213 206.393 67.2506L205.777 86.9798ZM214.132 86.8848C221.061 86.4857 226.13 86.9001 229.651 87.7741L234.023 68.6229C227.716 67.0576 220.366 66.6847 212.285 67.1502L214.132 86.8848ZM229.797 87.8094C233.399 88.6487 235.353 89.8409 236.419 90.8537L250.271 76.898C245.766 72.6185 240.047 70.0258 233.876 68.5876L229.797 87.8094ZM236.565 90.99C237.996 92.2976 239.225 94.0908 240.106 96.6958L259.292 91.0462C257.438 85.5683 254.431 80.6981 250.125 76.7617L236.565 90.99ZM240.106 96.6958C241.288 100.188 241.265 103.229 240.268 106.157L259.484 112.946C261.917 105.798 261.776 98.3847 259.292 91.0462L240.106 96.6958ZM240.257 106.188C239.25 109.182 237.227 112.178 233.65 115.118L246.964 130.419C252.823 125.603 257.18 119.788 259.494 112.915L240.257 106.188ZM233.65 115.118C230.129 118.013 225.414 120.471 219.218 122.296L225.63 141.24C233.841 138.822 241.048 135.282 246.964 130.419L233.65 115.118Z"
          fill="black"
          mask="url(#path-1-outside-1_0_1)"
        />
        <path
          d="M195.5 45C192.5 46.5 190.182 48.4982 187.857 50.1625C186.129 51.4001 184.393 52.7028 182.896 54.2159C180.852 56.2822 177 61.5 176.5 64.5"
          stroke="#EEEEEE"
          strokeOpacity="0.5"
          strokeWidth="6"
          strokeLinecap="round"
          strokeLinejoin="round"
        />
        <path
          d="M210.061 92.141C213.37 92.141 215.584 91.8187 218.5 93.5C219.686 94.1836 220.511 96.1766 220.5 97.5C220.48 99.8593 219 101.5 217 103C214.5 104 210.5 105 208 105.5"
          stroke="#EEEEEE"
          strokeOpacity="0.5"
          strokeWidth="6"
          strokeLinecap="round"
          strokeLinejoin="round"
        />
        <path
          d="M190.5 110C190 110.5 189.263 111.571 188.853 112.037C188.004 113.002 187.461 114.314 187.374 115.597C187.28 116.987 187 116.5 188 120C189 122.5 189.471 124.832 191 126.5"
          stroke="#EEEEEE"
          strokeOpacity="0.5"
          strokeWidth="6"
          strokeLinecap="round"
          strokeLinejoin="round"
        />

        <mask
          id="path-6-outside-2_0_1"
          maskUnits="userSpaceOnUse"
          x="480.73"
          y="23.7792"
          width="94.3881"
          height="118.576"
          fill="black"
        >
          <rect
            fill="white"
            x="480.73"
            y="23.7792"
            width="94.3881"
            height="118.576"
          />
          <path d="M542.664 36.2763C550.682 36.5135 556.263 37.959 559.406 40.613C562.553 43.1818 564.035 46.8537 563.853 51.6289C563.664 56.5746 561.603 60.2272 557.67 62.5865C553.826 64.8631 547.938 65.8841 540.005 65.6495C537.361 65.5713 534.377 65.4404 531.054 65.2567C527.734 64.9878 524.247 64.6285 520.592 64.179L521.271 63.1746C522.052 65.0758 522.402 67.0923 522.321 69.2241C522.239 71.3559 521.82 73.3923 521.062 75.3333L519.05 74.3774C520.946 73.9213 523.222 73.5618 525.879 73.2989C528.625 72.9533 531.453 72.6955 534.363 72.5254C537.273 72.3554 539.922 72.3057 542.31 72.3763C548.793 72.568 553.276 73.6824 555.76 75.7193C558.329 77.7587 559.558 80.2281 559.448 83.1273C559.327 86.2823 557.732 88.9242 554.662 91.053C551.68 93.099 546.564 94.0148 539.314 93.8003C536.158 93.707 532.753 93.4355 529.098 92.986C525.444 92.5364 521.751 91.9577 518.021 91.2498L520.127 89.7754C520.845 91.0772 521.256 92.626 521.358 94.4217C521.546 96.22 521.435 98.0094 521.025 99.79C520.619 101.485 519.92 103.001 518.93 104.338L518.979 103.059C521.223 102.442 523.76 101.962 526.591 101.619C529.425 101.191 532.34 100.893 535.335 100.725C538.33 100.558 541.107 100.512 543.666 100.588C549.722 100.767 554.204 101.924 557.111 104.059C560.018 106.193 561.384 109.563 561.208 114.168C561.094 117.152 560.402 119.607 559.133 121.533C557.95 123.462 555.923 125.109 553.053 126.476C550.792 127.518 547.942 128.373 544.501 129.04C541.145 129.709 537.541 130.157 533.69 130.385C529.921 130.7 526.202 130.803 522.534 130.695C515.796 130.496 510.24 129.52 505.867 127.769C501.582 125.935 498.518 123.411 496.677 120.198C495.003 117.076 493.877 113.03 493.298 108.062C492.719 103.093 492.594 96.3028 492.923 87.6904C493.236 79.5043 493.792 72.7767 494.591 67.5076C495.393 62.1532 496.412 57.8296 497.648 54.5368C498.884 51.244 500.264 48.6384 501.789 46.7201C504.121 43.8012 507.366 41.5496 511.526 39.9652C515.685 38.3809 520.465 37.3271 525.864 36.8039C531.264 36.2806 536.864 36.1048 542.664 36.2763Z" />
        </mask>
        <path
          d="M542.664 36.2763C550.682 36.5135 556.263 37.959 559.406 40.613C562.553 43.1818 564.035 46.8537 563.853 51.6289C563.664 56.5746 561.603 60.2272 557.67 62.5865C553.826 64.8631 547.938 65.8841 540.005 65.6495C537.361 65.5713 534.377 65.4404 531.054 65.2567C527.734 64.9878 524.247 64.6285 520.592 64.179L521.271 63.1746C522.052 65.0758 522.402 67.0923 522.321 69.2241C522.239 71.3559 521.82 73.3923 521.062 75.3333L519.05 74.3774C520.946 73.9213 523.222 73.5618 525.879 73.2989C528.625 72.9533 531.453 72.6955 534.363 72.5254C537.273 72.3554 539.922 72.3057 542.31 72.3763C548.793 72.568 553.276 73.6824 555.76 75.7193C558.329 77.7587 559.558 80.2281 559.448 83.1273C559.327 86.2823 557.732 88.9242 554.662 91.053C551.68 93.099 546.564 94.0148 539.314 93.8003C536.158 93.707 532.753 93.4355 529.098 92.986C525.444 92.5364 521.751 91.9577 518.021 91.2498L520.127 89.7754C520.845 91.0772 521.256 92.626 521.358 94.4217C521.546 96.22 521.435 98.0094 521.025 99.79C520.619 101.485 519.92 103.001 518.93 104.338L518.979 103.059C521.223 102.442 523.76 101.962 526.591 101.619C529.425 101.191 532.34 100.893 535.335 100.725C538.33 100.558 541.107 100.512 543.666 100.588C549.722 100.767 554.204 101.924 557.111 104.059C560.018 106.193 561.384 109.563 561.208 114.168C561.094 117.152 560.402 119.607 559.133 121.533C557.95 123.462 555.923 125.109 553.053 126.476C550.792 127.518 547.942 128.373 544.501 129.04C541.145 129.709 537.541 130.157 533.69 130.385C529.921 130.7 526.202 130.803 522.534 130.695C515.796 130.496 510.24 129.52 505.867 127.769C501.582 125.935 498.518 123.411 496.677 120.198C495.003 117.076 493.877 113.03 493.298 108.062C492.719 103.093 492.594 96.3028 492.923 87.6904C493.236 79.5043 493.792 72.7767 494.591 67.5076C495.393 62.1532 496.412 57.8296 497.648 54.5368C498.884 51.244 500.264 48.6384 501.789 46.7201C504.121 43.8012 507.366 41.5496 511.526 39.9652C515.685 38.3809 520.465 37.3271 525.864 36.8039C531.264 36.2806 536.864 36.1048 542.664 36.2763Z"
          fill="#DB99B7"
        />
        <path
          d="M559.406 40.613L552.913 48.273L552.975 48.3257L553.039 48.3774L559.406 40.613ZM557.67 62.5865L562.715 71.1757L562.739 71.161L562.764 71.1463L557.67 62.5865ZM531.054 65.2567L530.161 75.2212L530.288 75.2315L530.416 75.2385L531.054 65.2567ZM520.592 64.179L512.318 58.6322L503.2 72.1226L519.286 74.1013L520.592 64.179ZM521.271 63.1746L530.528 59.3087L523.47 42.1324L512.997 57.6278L521.271 63.1746ZM521.062 75.3333L516.706 84.3697L526.439 88.9916L530.378 78.8954L521.062 75.3333ZM519.05 74.3774L516.788 64.659L489.184 71.2997L514.693 83.4138L519.05 74.3774ZM525.879 73.2989L526.78 83.2473L526.913 83.2342L527.045 83.2175L525.879 73.2989ZM534.363 72.5254L533.864 62.5454L533.864 62.5454L534.363 72.5254ZM555.76 75.7193L549.375 83.4697L549.436 83.5195L549.497 83.5683L555.76 75.7193ZM554.662 91.053L560.276 99.2787L560.296 99.2648L560.316 99.2508L554.662 91.053ZM529.098 92.986L530.404 83.0636L530.404 83.0636L529.098 92.986ZM518.021 91.2498L512.329 83.0782L492.908 96.6758L516.073 101.072L518.021 91.2498ZM520.127 89.7754L528.894 84.8877L523.555 75.2183L514.435 81.6039L520.127 89.7754ZM521.358 94.4217L511.371 95.0748L511.385 95.309L511.409 95.5422L521.358 94.4217ZM521.025 99.79L530.752 102.04L530.762 101.995L530.773 101.95L521.025 99.79ZM518.93 104.338L508.934 104.042L507.705 136.216L526.95 110.243L518.93 104.338ZM518.979 103.059L516.404 93.4211L509.265 95.3828L508.983 102.763L518.979 103.059ZM526.591 101.619L527.711 111.544L527.858 111.526L528.004 111.504L526.591 101.619ZM535.335 100.725L535.808 110.707L535.808 110.707L535.335 100.725ZM557.111 104.059L551.143 112.133L551.143 112.133L557.111 104.059ZM559.133 121.533L550.794 116.085L550.704 116.221L550.619 116.359L559.133 121.533ZM553.053 126.476L557.181 135.546L557.236 135.52L557.291 135.494L553.053 126.476ZM544.501 129.04L542.679 119.226L542.652 119.231L542.625 119.236L544.501 129.04ZM533.69 130.385L533.185 120.405L533.063 120.412L532.941 120.422L533.69 130.385ZM505.867 127.769L501.862 136.964L501.969 137.01L502.078 137.053L505.867 127.769ZM496.677 120.198L487.851 124.978L487.917 125.101L487.986 125.223L496.677 120.198ZM493.298 108.062L483.362 109.302L493.298 108.062ZM494.591 67.5076L504.481 68.9224L504.482 68.9137L504.483 68.9049L494.591 67.5076ZM497.648 54.5368L507.01 57.9772L507.01 57.9772L497.648 54.5368ZM501.789 46.7201L493.993 40.5239L493.985 40.5333L493.978 40.5428L501.789 46.7201ZM511.526 39.9652L508.034 30.6275L508.034 30.6275L511.526 39.9652ZM525.864 36.8039L526.745 46.7542L525.864 36.8039ZM542.282 46.2691C549.859 46.4932 552.477 47.905 552.913 48.273L565.9 32.9531C560.048 28.0131 551.505 26.5338 543.046 26.2836L542.282 46.2691ZM553.039 48.3774C553.35 48.6312 553.944 49.0706 553.857 51.3333L573.848 51.9245C574.127 44.6369 571.756 37.7324 565.774 32.8487L553.039 48.3774ZM553.857 51.3333C553.813 52.5019 553.572 53.0309 553.463 53.2241C553.372 53.3841 553.183 53.6627 552.576 54.0268L562.764 71.1463C569.902 66.8639 573.543 59.9287 573.848 51.9245L553.857 51.3333ZM552.626 53.9973C551.267 54.8024 547.711 55.8734 540.387 55.6568L539.624 75.6422C548.164 75.8948 556.386 74.9238 562.715 71.1757L552.626 53.9973ZM540.387 55.6568C537.847 55.5816 534.95 55.4549 531.692 55.2748L530.416 75.2385C533.804 75.4258 536.875 75.5609 539.624 75.6422L540.387 55.6568ZM531.947 55.2922C528.778 55.0356 525.429 54.691 521.898 54.2566L519.286 74.1013C523.064 74.566 526.689 74.94 530.161 75.2212L531.947 55.2922ZM528.866 69.7258L529.545 68.7214L512.997 57.6278L512.318 58.6322L528.866 69.7258ZM512.013 67.0405C512.235 67.5798 512.354 68.1726 512.325 68.9285L532.316 69.5197C532.45 66.012 531.869 62.5718 530.528 59.3087L512.013 67.0405ZM512.325 68.9285C512.285 69.9728 512.086 70.9028 511.747 71.7713L530.378 78.8954C531.554 75.8818 532.193 72.7389 532.316 69.5197L512.325 68.9285ZM525.419 66.2969L523.406 65.341L514.693 83.4138L516.706 84.3697L525.419 66.2969ZM521.311 84.0958C522.63 83.7787 524.426 83.4802 526.78 83.2473L524.979 63.3505C522.018 63.6434 519.262 64.0639 516.788 64.659L521.311 84.0958ZM527.045 83.2175C529.558 82.9012 532.163 82.6631 534.861 82.5054L533.864 62.5454C530.743 62.7278 527.693 63.0054 524.713 63.3804L527.045 83.2175ZM534.861 82.5054C537.539 82.349 539.888 82.3087 541.928 82.369L542.692 62.3836C539.955 62.3027 537.007 62.3618 533.864 62.5454L534.861 82.5054ZM541.928 82.369C544.717 82.4515 546.704 82.7262 548.042 83.0586C549.431 83.404 549.651 83.6958 549.375 83.4697L562.144 67.9689C556.945 63.7053 549.515 62.5854 542.692 62.3836L541.928 82.369ZM549.497 83.5683C549.861 83.8567 549.787 83.9001 549.645 83.6154C549.578 83.4793 549.521 83.3188 549.486 83.1519C549.451 82.9872 549.45 82.8723 549.452 82.8316L569.443 83.4229C569.692 76.8998 566.678 71.566 562.022 67.8703L549.497 83.5683ZM549.452 82.8316C549.452 82.8318 549.452 82.8268 549.453 82.8169C549.454 82.8069 549.456 82.7928 549.459 82.7749C549.465 82.7382 549.475 82.6913 549.491 82.6375C549.525 82.522 549.571 82.4258 549.608 82.3636C549.686 82.2348 549.611 82.4365 549.007 82.8551L560.316 99.2508C565.469 95.6777 569.179 90.3279 569.443 83.4229L549.452 82.8316ZM549.048 82.8272C549.142 82.7628 548.63 83.1259 546.907 83.4343C545.24 83.7328 542.881 83.9018 539.696 83.8076L538.933 103.793C546.516 104.017 554.469 103.264 560.276 99.2787L549.048 82.8272ZM539.696 83.8076C536.895 83.7248 533.801 83.4815 530.404 83.0636L527.792 102.908C531.705 103.39 535.422 103.689 538.933 103.793L539.696 83.8076ZM530.404 83.0636C526.971 82.6413 523.493 82.0964 519.968 81.4276L516.073 101.072C520.01 101.819 523.916 102.432 527.792 102.908L530.404 83.0636ZM523.713 99.4213L525.819 97.947L514.435 81.6039L512.329 83.0782L523.713 99.4213ZM511.359 94.6632C511.298 94.5527 511.29 94.502 511.303 94.5507C511.317 94.6042 511.354 94.7687 511.371 95.0748L531.345 93.7686C531.175 90.7872 530.464 87.7301 528.894 84.8877L511.359 94.6632ZM511.409 95.5422C511.481 96.2363 511.441 96.9173 511.277 97.6298L530.773 101.95C531.428 99.1015 531.61 96.2037 531.307 93.3012L511.409 95.5422ZM511.298 97.5404C511.192 97.9844 511.05 98.2438 510.909 98.4331L526.95 110.243C528.791 107.759 530.045 104.986 530.752 102.04L511.298 97.5404ZM528.926 104.634L528.974 103.354L508.983 102.763L508.934 104.042L528.926 104.634ZM521.554 112.697C523.227 112.237 525.265 111.84 527.711 111.544L525.471 91.6951C522.254 92.0849 519.218 92.6478 516.404 93.4211L521.554 112.697ZM528.004 111.504C530.512 111.125 533.113 110.858 535.808 110.707L534.862 90.744C531.567 90.9283 528.338 91.2573 525.178 91.7349L528.004 111.504ZM535.808 110.707C538.565 110.553 541.054 110.514 543.284 110.58L544.048 90.595C541.161 90.5096 538.095 90.5632 534.862 90.744L535.808 110.707ZM543.284 110.58C548.545 110.736 550.619 111.748 551.143 112.133L563.079 95.9845C557.788 92.0999 550.9 90.7976 544.048 90.595L543.284 110.58ZM551.143 112.133C551.159 112.144 551.125 112.12 551.079 112.061C551.034 112.003 551.025 111.972 551.04 112.008C551.075 112.094 551.26 112.621 551.212 113.872L571.204 114.463C571.467 107.57 569.35 100.589 563.079 95.9845L551.143 112.133ZM551.212 113.872C551.18 114.707 551.075 115.268 550.977 115.615C550.882 115.951 550.798 116.078 550.794 116.085L567.473 126.982C570.016 123.122 571.04 118.742 571.204 114.463L551.212 113.872ZM550.619 116.359C550.795 116.072 550.605 116.604 548.814 117.457L557.291 135.494C561.24 133.614 565.104 130.851 567.647 126.708L550.619 116.359ZM548.924 117.406C547.633 118.001 545.622 118.656 542.679 119.226L546.323 138.854C550.262 138.091 553.952 137.036 557.181 135.546L548.924 117.406ZM542.625 119.236C539.775 119.805 536.634 120.201 533.185 120.405L534.195 140.364C538.449 140.113 542.515 139.613 546.376 138.843L542.625 119.236ZM532.941 120.422C529.536 120.707 526.196 120.799 522.916 120.702L522.153 140.688C526.209 140.808 530.305 140.693 534.439 140.347L532.941 120.422ZM522.916 120.702C516.89 120.524 512.589 119.66 509.655 118.485L502.078 137.053C507.891 139.381 514.702 140.467 522.153 140.688L522.916 120.702ZM509.871 118.574C507.047 117.365 505.894 116.092 505.368 115.174L487.986 125.223C491.143 130.731 496.117 134.505 501.862 136.964L509.871 118.574ZM505.503 115.419C504.606 113.744 503.723 111.018 503.234 106.821L483.362 109.302C484.031 115.043 485.401 120.407 487.851 124.978L505.503 115.419ZM503.234 106.821C502.742 102.597 502.598 96.3945 502.919 87.986L482.928 87.3947C482.591 96.211 482.697 103.589 483.362 109.302L503.234 106.821ZM502.919 87.986C503.224 79.9983 503.759 73.6796 504.481 68.9224L484.701 66.0927C483.824 71.8739 483.248 79.0103 482.928 87.3947L502.919 87.986ZM504.483 68.9049C505.231 63.9161 506.118 60.355 507.01 57.9772L488.286 51.0964C486.707 55.3041 485.556 60.3903 484.699 66.1103L504.483 68.9049ZM507.01 57.9772C508.023 55.2782 508.951 53.7144 509.601 52.8974L493.978 40.5428C491.577 43.5625 489.745 47.2098 488.286 51.0964L507.01 57.9772ZM509.586 52.9163C510.588 51.6612 512.22 50.3688 515.018 49.303L508.034 30.6275C502.513 32.7303 497.654 35.9412 493.993 40.5239L509.586 52.9163ZM515.018 49.303C518.176 48.1001 522.049 47.2093 526.745 46.7542L524.984 26.8535C518.88 27.445 513.194 28.6617 508.034 30.6275L515.018 49.303ZM526.745 46.7542C531.697 46.2744 536.874 46.1091 542.282 46.2691L543.046 26.2836C536.854 26.1005 530.832 26.2869 524.984 26.8535L526.745 46.7542Z"
          fill="black"
          mask="url(#path-6-outside-2_0_1)"
        />
        <path
          d="M530.965 38.957C529.033 39.235 527.084 39.3681 525.152 39.6452C523.299 39.9109 521.459 40.1474 519.621 40.5055C516.075 41.1966 512.283 42.0181 509.117 43.8441C506.301 45.4682 504.929 47.0091 503 49.5004C500.88 51.7294 499.485 56.6883 498.5 59.5004"
          stroke="#EEEEEE"
          strokeOpacity="0.5"
          strokeWidth="6"
          strokeLinecap="round"
          strokeLinejoin="round"
        />

        <mask
          id="path-9-outside-3_0_1"
          maskUnits="userSpaceOnUse"
          x="82"
          y="29"
          width="100"
          height="116"
          fill="black"
        >
          <rect fill="white" x="82" y="29" width="100" height="116" />
          <path d="M107.896 134.896C103.032 134.896 99.32 133.488 96.76 130.672C94.2 127.771 92.92 122.608 92.92 115.184C92.92 112.027 93.2613 108.272 93.944 103.92C94.712 99.4827 95.736 94.7893 97.016 89.84C98.296 84.8907 99.7467 79.9413 101.368 74.992C103.075 69.9573 104.909 65.3067 106.872 61.04C109.517 55.3227 112.291 50.928 115.192 47.856C118.093 44.6987 121.165 42.5227 124.408 41.328C127.651 40.048 131.064 39.408 134.648 39.408C140.195 39.408 145.229 40.944 149.752 44.016C154.36 47.088 158.243 52.5493 161.4 60.4C163.192 64.8373 164.856 69.9573 166.392 75.76C168.013 81.4773 169.293 87.536 170.232 93.936C171.171 100.336 171.64 106.736 171.64 113.136C171.64 120.645 170.061 126.149 166.904 129.648C163.747 133.147 159.309 134.896 153.592 134.896C148.813 134.896 145.016 133.616 142.2 131.056C139.384 128.496 137.677 124.229 137.08 118.256C136.739 114.416 136.568 110.448 136.568 106.352C136.568 102.256 136.739 98.288 137.08 94.448L145.144 104.048C143.011 104.731 140.323 105.157 137.08 105.328C133.837 105.499 130.467 105.413 126.968 105.072C123.555 104.731 120.355 104.091 117.368 103.152L128.632 94.704C128.717 98.8853 128.504 102.981 127.992 106.992C127.48 111.003 126.883 114.629 126.2 117.872C125.688 121.627 124.707 124.784 123.256 127.344C121.805 129.819 119.8 131.696 117.24 132.976C114.765 134.256 111.651 134.896 107.896 134.896ZM133.88 85.488C137.379 85.488 140.109 84.6347 142.072 82.928C144.12 81.136 145.144 78.8747 145.144 76.144C145.144 74.9493 144.888 73.712 144.376 72.432C143.864 71.152 143.139 70 142.2 68.976C141.261 67.8667 140.109 66.9707 138.744 66.288C137.379 65.6053 135.843 65.264 134.136 65.264C132.429 65.264 130.893 65.648 129.528 66.416C128.163 67.0987 126.968 68.0373 125.944 69.232C125.005 70.3413 124.237 71.6213 123.64 73.072C123.128 74.4373 122.872 75.8027 122.872 77.168C122.872 79.5573 123.853 81.5627 125.816 83.184C127.864 84.72 130.552 85.488 133.88 85.488Z" />
        </mask>
        <path
          d="M107.896 134.896C103.032 134.896 99.32 133.488 96.76 130.672C94.2 127.771 92.92 122.608 92.92 115.184C92.92 112.027 93.2613 108.272 93.944 103.92C94.712 99.4827 95.736 94.7893 97.016 89.84C98.296 84.8907 99.7467 79.9413 101.368 74.992C103.075 69.9573 104.909 65.3067 106.872 61.04C109.517 55.3227 112.291 50.928 115.192 47.856C118.093 44.6987 121.165 42.5227 124.408 41.328C127.651 40.048 131.064 39.408 134.648 39.408C140.195 39.408 145.229 40.944 149.752 44.016C154.36 47.088 158.243 52.5493 161.4 60.4C163.192 64.8373 164.856 69.9573 166.392 75.76C168.013 81.4773 169.293 87.536 170.232 93.936C171.171 100.336 171.64 106.736 171.64 113.136C171.64 120.645 170.061 126.149 166.904 129.648C163.747 133.147 159.309 134.896 153.592 134.896C148.813 134.896 145.016 133.616 142.2 131.056C139.384 128.496 137.677 124.229 137.08 118.256C136.739 114.416 136.568 110.448 136.568 106.352C136.568 102.256 136.739 98.288 137.08 94.448L145.144 104.048C143.011 104.731 140.323 105.157 137.08 105.328C133.837 105.499 130.467 105.413 126.968 105.072C123.555 104.731 120.355 104.091 117.368 103.152L128.632 94.704C128.717 98.8853 128.504 102.981 127.992 106.992C127.48 111.003 126.883 114.629 126.2 117.872C125.688 121.627 124.707 124.784 123.256 127.344C121.805 129.819 119.8 131.696 117.24 132.976C114.765 134.256 111.651 134.896 107.896 134.896ZM133.88 85.488C137.379 85.488 140.109 84.6347 142.072 82.928C144.12 81.136 145.144 78.8747 145.144 76.144C145.144 74.9493 144.888 73.712 144.376 72.432C143.864 71.152 143.139 70 142.2 68.976C141.261 67.8667 140.109 66.9707 138.744 66.288C137.379 65.6053 135.843 65.264 134.136 65.264C132.429 65.264 130.893 65.648 129.528 66.416C128.163 67.0987 126.968 68.0373 125.944 69.232C125.005 70.3413 124.237 71.6213 123.64 73.072C123.128 74.4373 122.872 75.8027 122.872 77.168C122.872 79.5573 123.853 81.5627 125.816 83.184C127.864 84.72 130.552 85.488 133.88 85.488Z"
          fill="#DF9055"
        />
        <path
          d="M96.76 130.672L89.2616 137.288L89.3107 137.344L89.3606 137.399L96.76 130.672ZM93.944 103.92L84.0905 102.215L84.077 102.292L84.0648 102.37L93.944 103.92ZM97.016 89.84L87.3345 87.3362H87.3345L97.016 89.84ZM101.368 74.992L91.8973 71.7816L91.8809 71.8302L91.8649 71.8789L101.368 74.992ZM106.872 61.04L97.7964 56.8408L97.7917 56.8509L97.7871 56.8609L106.872 61.04ZM115.192 47.856L122.462 54.7222L122.509 54.6726L122.555 54.6222L115.192 47.856ZM124.408 41.328L127.865 50.7114L127.973 50.6717L128.08 50.6296L124.408 41.328ZM149.752 44.016L144.133 52.2882L144.169 52.3125L144.205 52.3365L149.752 44.016ZM161.4 60.4L152.122 64.1313L152.125 64.138L152.128 64.1446L161.4 60.4ZM166.392 75.76L156.725 78.3189L156.747 78.4038L156.771 78.4882L166.392 75.76ZM170.232 93.936L160.338 95.3871V95.3871L170.232 93.936ZM166.904 129.648L159.48 122.948L166.904 129.648ZM142.2 131.056L135.473 138.455H135.473L142.2 131.056ZM137.08 118.256L127.119 119.141L127.124 119.196L127.13 119.251L137.08 118.256ZM137.08 94.448L144.737 88.0161L129.251 69.5803L127.119 93.5626L137.08 94.448ZM145.144 104.048L148.192 113.572L162.388 109.029L152.801 97.6161L145.144 104.048ZM137.08 105.328L137.606 115.314H137.606L137.08 105.328ZM126.968 105.072L125.973 115.022L125.985 115.024L125.997 115.025L126.968 105.072ZM117.368 103.152L111.368 95.152L95.7739 106.848L114.37 112.692L117.368 103.152ZM128.632 94.704L138.63 94.5L138.232 75.004L122.632 86.704L128.632 94.704ZM127.992 106.992L118.073 105.726V105.726L127.992 106.992ZM126.2 117.872L116.415 115.812L116.34 116.164L116.292 116.521L126.2 117.872ZM123.256 127.344L131.883 132.401L131.92 132.338L131.956 132.274L123.256 127.344ZM117.24 132.976L112.768 124.032L112.707 124.062L112.646 124.094L117.24 132.976ZM142.072 82.928L148.634 90.4741L148.645 90.4639L148.657 90.4538L142.072 82.928ZM144.376 72.432L153.661 68.7181L153.661 68.7181L144.376 72.432ZM142.2 68.976L134.566 75.4354L134.694 75.5869L134.828 75.7332L142.2 68.976ZM138.744 66.288L143.216 57.3437L143.216 57.3437L138.744 66.288ZM129.528 66.416L134 75.3603L134.218 75.2513L134.431 75.1318L129.528 66.416ZM125.944 69.232L118.351 62.7241L118.331 62.7483L118.31 62.7726L125.944 69.232ZM123.64 73.072L114.393 69.2645L114.333 69.4117L114.277 69.5608L123.64 73.072ZM125.816 83.184L119.447 90.8936L119.628 91.0431L119.816 91.184L125.816 83.184ZM107.896 124.896C105.015 124.896 104.328 124.13 104.159 123.945L89.3606 137.399C94.3124 142.846 101.049 144.896 107.896 144.896V124.896ZM104.258 124.056C104.365 124.176 103.977 123.793 103.586 122.218C103.201 120.665 102.92 118.378 102.92 115.184H82.92C82.92 123.096 84.1498 131.495 89.2616 137.288L104.258 124.056ZM102.92 115.184C102.92 112.703 103.192 109.493 103.823 105.47L84.0648 102.37C83.3306 107.051 82.92 111.35 82.92 115.184H102.92ZM103.798 105.625C104.513 101.489 105.477 97.064 106.697 92.3438L87.3345 87.3362C85.9953 92.5147 84.9106 97.4759 84.0905 102.215L103.798 105.625ZM106.697 92.3438C107.923 87.6032 109.314 82.857 110.871 78.1051L91.8649 71.8789C90.1789 77.0256 88.6685 82.1781 87.3345 87.3362L106.697 92.3438ZM110.839 78.2024C112.448 73.455 114.157 69.1318 115.957 65.219L97.7871 56.8609C95.6616 61.4815 93.7014 66.4597 91.8973 71.7816L110.839 78.2024ZM115.948 65.2392C118.339 60.0697 120.572 56.724 122.462 54.7222L107.922 40.9898C104.01 45.1319 100.695 50.5756 97.7964 56.8408L115.948 65.2392ZM122.555 54.6222C124.635 52.3588 126.43 51.24 127.865 50.7114L120.951 31.9446C115.9 33.8054 111.551 37.0385 107.829 41.0897L122.555 54.6222ZM128.08 50.6296C130.12 49.8241 132.285 49.408 134.648 49.408V29.408C129.843 29.408 125.181 30.2719 120.736 32.0264L128.08 50.6296ZM134.648 49.408C138.222 49.408 141.294 50.3593 144.133 52.2882L155.371 35.7438C149.165 31.5287 142.167 29.408 134.648 29.408V49.408ZM144.205 52.3365C146.464 53.8425 149.346 57.229 152.122 64.1313L170.678 56.6687C167.139 47.8697 162.256 40.3334 155.299 35.6955L144.205 52.3365ZM152.128 64.1446C153.73 68.1128 155.27 72.823 156.725 78.3189L176.059 73.2011C174.442 67.0917 172.654 61.5619 170.672 56.6554L152.128 64.1446ZM156.771 78.4882C158.264 83.7514 159.457 89.3809 160.338 95.3871L180.126 92.4849C179.13 85.6911 177.763 79.2033 176.013 73.0318L156.771 78.4882ZM160.338 95.3871C161.207 101.312 161.64 107.227 161.64 113.136H181.64C181.64 106.245 181.135 99.3602 180.126 92.4848L160.338 95.3871ZM161.64 113.136C161.64 119.565 160.236 122.11 159.48 122.948L174.328 136.348C179.886 130.188 181.64 121.725 181.64 113.136H161.64ZM159.48 122.948C158.617 123.905 157.133 124.896 153.592 124.896V144.896C161.485 144.896 168.876 142.389 174.328 136.348L159.48 122.948ZM153.592 124.896C150.64 124.896 149.465 124.146 148.927 123.657L135.473 138.455C140.567 143.086 146.987 144.896 153.592 144.896V124.896ZM148.927 123.657C148.745 123.491 147.517 122.129 147.03 117.261L127.13 119.251C127.838 126.33 130.023 133.501 135.473 138.455L148.927 123.657ZM147.041 117.371C146.727 113.843 146.568 110.171 146.568 106.352H126.568C126.568 110.725 126.75 114.989 127.119 119.141L147.041 117.371ZM146.568 106.352C146.568 102.533 146.727 98.8614 147.041 95.3334L127.119 93.5626C126.75 97.7146 126.568 101.979 126.568 106.352H146.568ZM129.423 100.88L137.487 110.48L152.801 97.6161L144.737 88.0161L129.423 100.88ZM142.096 94.5238C141.056 94.8566 139.288 95.198 136.554 95.3418L137.606 115.314C141.358 115.117 144.965 114.605 148.192 113.572L142.096 94.5238ZM136.554 95.3418C133.85 95.4842 130.981 95.416 127.939 95.1193L125.997 115.025C129.953 115.411 133.825 115.513 137.606 115.314L136.554 95.3418ZM127.963 95.1216C125.166 94.8419 122.642 94.3274 120.366 93.6121L114.37 112.692C118.067 113.854 121.944 114.619 125.973 115.022L127.963 95.1216ZM123.368 111.152L134.632 102.704L122.632 86.704L111.368 95.152L123.368 111.152ZM118.634 94.908C118.71 98.6148 118.52 102.219 118.073 105.726L137.911 108.258C138.488 103.744 138.725 99.1559 138.63 94.5L118.634 94.908ZM118.073 105.726C117.587 109.526 117.031 112.881 116.415 115.812L135.985 119.932C136.734 116.377 137.373 112.48 137.911 108.258L118.073 105.726ZM116.292 116.521C115.904 119.363 115.228 121.227 114.556 122.414L131.956 132.274C134.185 128.341 135.472 123.891 136.108 119.223L116.292 116.521ZM114.629 122.287C114.155 123.095 113.592 123.62 112.768 124.032L121.712 141.92C126.008 139.772 129.455 136.543 131.883 132.401L114.629 122.287ZM112.646 124.094C111.998 124.429 110.583 124.896 107.896 124.896V144.896C112.719 144.896 117.533 144.083 121.834 141.858L112.646 124.094ZM133.88 95.488C138.95 95.488 144.304 94.2388 148.634 90.4741L135.51 75.3819C135.671 75.2421 135.749 75.247 135.569 75.3032C135.357 75.3697 134.835 75.488 133.88 75.488V95.488ZM148.657 90.4538C152.884 86.7554 155.144 81.7469 155.144 76.144H135.144C135.144 76.1996 135.139 76.1771 135.156 76.0946C135.173 76.0093 135.208 75.8928 135.266 75.7629C135.325 75.633 135.391 75.5285 135.446 75.4558C135.5 75.3853 135.524 75.3701 135.487 75.4022L148.657 90.4538ZM155.144 76.144C155.144 73.4969 154.573 70.9996 153.661 68.7181L135.091 76.1459C135.148 76.2882 135.161 76.3532 135.159 76.346C135.159 76.3424 135.155 76.3223 135.151 76.2868C135.147 76.2512 135.144 76.2031 135.144 76.144H155.144ZM153.661 68.7181C152.697 66.3077 151.32 64.1263 149.572 62.2187L134.828 75.7332C134.957 75.8737 135.031 75.9963 135.091 76.1459L153.661 68.7181ZM149.834 62.5166C147.977 60.3216 145.731 58.6009 143.216 57.3437L134.272 75.2323C134.488 75.3404 134.546 75.4117 134.566 75.4354L149.834 62.5166ZM143.216 57.3437C140.306 55.8884 137.21 55.264 134.136 55.264V75.264C134.229 75.264 134.295 75.2687 134.337 75.2731C134.379 75.2774 134.398 75.2817 134.399 75.2819C134.399 75.2819 134.385 75.2788 134.36 75.2699C134.335 75.261 134.304 75.2485 134.272 75.2323L143.216 57.3437ZM134.136 55.264C130.87 55.264 127.619 56.0161 124.625 57.7002L134.431 75.1318C134.327 75.1901 134.218 75.2313 134.129 75.2534C134.045 75.2745 134.037 75.264 134.136 75.264V55.264ZM125.056 57.4717C122.461 58.7689 120.216 60.5493 118.351 62.7241L133.537 75.7399C133.72 75.5254 133.864 75.4284 134 75.3603L125.056 57.4717ZM118.31 62.7726C116.648 64.7373 115.355 66.9278 114.393 69.2645L132.887 76.8795C133.119 76.3149 133.363 75.9453 133.578 75.6914L118.31 62.7726ZM114.277 69.5608C113.373 71.972 112.872 74.5241 112.872 77.168H132.872C132.872 77.0813 132.883 76.9027 133.003 76.5832L114.277 69.5608ZM112.872 77.168C112.872 82.7566 115.357 87.5149 119.447 90.8936L132.185 75.4744C132.147 75.443 132.373 75.6254 132.59 76.0685C132.816 76.5292 132.872 76.9484 132.872 77.168H112.872ZM119.816 91.184C124.052 94.3606 129.039 95.488 133.88 95.488V75.488C132.065 75.488 131.676 75.0794 131.816 75.184L119.816 91.184Z"
          fill="black"
          mask="url(#path-9-outside-3_0_1)"
        />
        <path
          d="M136.086 42.112C133.086 41.6119 127.868 42.9279 126.862 43.289C125.139 43.907 123.636 44.8223 122.152 45.8698C121.046 46.6514 119.834 47.2882 118.765 48.1208C117.578 49.0444 116.681 50.2788 115.647 51.357C113.814 53.2678 112.635 55.6882 111.586 58.1118"
          stroke="#EEEEEE"
          strokeOpacity="0.5"
          strokeWidth="6"
          strokeLinecap="round"
          strokeLinejoin="round"
        />
        <path
          d="M99.1116 92.9998C98.7442 94.5377 98.0668 97.2564 97.7951 98.7944C97.7217 99.2099 97.6115 99.6384 97.6016 100.061"
          stroke="#EEEEEE"
          strokeOpacity="0.5"
          strokeWidth="6"
          strokeLinecap="round"
          strokeLinejoin="round"
        />
        <path
          d="M142 65C142.5 65.5 142.977 65.9158 143.247 66.23"
          stroke="#EEEEEE"
          strokeOpacity="0.5"
          strokeWidth="5"
          strokeLinecap="round"
        />
        <path
          d="M147 71C147.5 72 147.748 73.389 147.869 74.2281C147.951 74.798 148 75.4231 148 76C148 77 147.912 77.3593 147.869 77.9279"
          stroke="#EEEEEE"
          strokeOpacity="0.5"
          strokeWidth="5"
          strokeLinecap="round"
        />

        <mask
          id="path-15-outside-4_0_1"
          maskUnits="userSpaceOnUse"
          x="-6.11224"
          y="26.7703"
          width="119.455"
          height="125.482"
          fill="black"
        >
          <rect
            fill="white"
            x="-6.11224"
            y="26.7703"
            width="119.455"
            height="125.482"
          />
          <path d="M54.6653 135.972C43.8415 134.505 35.1115 131.515 28.4753 127C21.8522 122.4 17.2704 116.614 14.7299 109.64C12.274 102.678 11.7222 94.8547 13.0747 86.17C14.5716 76.5579 17.8652 68.4375 22.9557 61.809C28.0593 55.0962 34.6403 50.2624 42.6988 47.3076C50.8418 44.3643 60.1984 43.6087 70.7685 45.0407C80.6621 46.3811 87.9218 49.3878 92.5474 54.061C97.2707 58.6613 99.1006 64.3763 98.037 71.206C97.2623 76.1807 95.2499 79.9546 91.9999 82.5276C88.8475 85.0278 84.6499 85.9228 79.4071 85.2125C76.5321 84.823 74.0966 84.1056 72.1008 83.0604C70.1049 82.0151 68.1025 81.012 66.0935 80.0511C64.0977 79.0058 61.7045 78.2942 58.914 77.9161C56.5463 77.5953 54.2463 77.6712 52.0142 78.1436C49.8796 78.5432 48.0403 79.5424 46.4962 81.1412C45.0497 82.6672 44.0901 84.9479 43.6174 87.9833C43.0003 91.9462 43.7443 94.9312 45.8494 96.9383C48.039 98.9569 51.121 100.235 55.0954 100.774C57.1248 101.049 59.4277 101.232 62.0039 101.322C64.5932 101.329 67.1337 101.372 69.6254 101.451C72.2016 101.542 74.3776 101.707 76.1534 101.948C80.6351 102.555 83.9897 104.301 86.2172 107.186C88.5423 109.997 89.3176 113.891 88.5429 118.865C87.5318 125.358 84.2298 130.205 78.6367 133.408C73.1413 136.538 65.1508 137.392 54.6653 135.972Z" />
        </mask>
        <path
          d="M54.6653 135.972C43.8415 134.505 35.1115 131.515 28.4753 127C21.8522 122.4 17.2704 116.614 14.7299 109.64C12.274 102.678 11.7222 94.8547 13.0747 86.17C14.5716 76.5579 17.8652 68.4375 22.9557 61.809C28.0593 55.0962 34.6403 50.2624 42.6988 47.3076C50.8418 44.3643 60.1984 43.6087 70.7685 45.0407C80.6621 46.3811 87.9218 49.3878 92.5474 54.061C97.2707 58.6613 99.1006 64.3763 98.037 71.206C97.2623 76.1807 95.2499 79.9546 91.9999 82.5276C88.8475 85.0278 84.6499 85.9228 79.4071 85.2125C76.5321 84.823 74.0966 84.1056 72.1008 83.0604C70.1049 82.0151 68.1025 81.012 66.0935 80.0511C64.0977 79.0058 61.7045 78.2942 58.914 77.9161C56.5463 77.5953 54.2463 77.6712 52.0142 78.1436C49.8796 78.5432 48.0403 79.5424 46.4962 81.1412C45.0497 82.6672 44.0901 84.9479 43.6174 87.9833C43.0003 91.9462 43.7443 94.9312 45.8494 96.9383C48.039 98.9569 51.121 100.235 55.0954 100.774C57.1248 101.049 59.4277 101.232 62.0039 101.322C64.5932 101.329 67.1337 101.372 69.6254 101.451C72.2016 101.542 74.3776 101.707 76.1534 101.948C80.6351 102.555 83.9897 104.301 86.2172 107.186C88.5423 109.997 89.3176 113.891 88.5429 118.865C87.5318 125.358 84.2298 130.205 78.6367 133.408C73.1413 136.538 65.1508 137.392 54.6653 135.972Z"
          fill="#DB99B7"
        />
        <path
          d="M28.4753 127L22.629 135.211L22.6674 135.237L22.706 135.263L28.4753 127ZM14.7299 109.64L5.25995 113.099L5.27655 113.146L5.29363 113.193L14.7299 109.64ZM22.9557 61.809L30.8831 67.7652L30.8983 67.7455L30.9134 67.7256L22.9557 61.809ZM42.6988 47.3076L39.432 37.9433L39.4098 37.9513L39.3876 37.9595L42.6988 47.3076ZM92.5474 54.061L85.3348 61.1241L85.3974 61.1874L85.4611 61.2494L92.5474 54.061ZM91.9999 82.5276L85.8454 74.7724L85.8384 74.778L91.9999 82.5276ZM72.1008 83.0604L67.2965 91.9024L67.2965 91.9024L72.1008 83.0604ZM66.0935 80.0511L61.2892 88.8932L61.447 88.9758L61.6078 89.0527L66.0935 80.0511ZM52.0142 78.1436L53.688 87.942L53.8057 87.92L53.9229 87.8952L52.0142 78.1436ZM46.4962 81.1412L39.3269 74.3056L39.2935 74.3402L39.2604 74.3751L46.4962 81.1412ZM45.8494 96.9383L38.8375 104.198L38.8966 104.255L38.9567 104.31L45.8494 96.9383ZM62.0039 101.322L61.4588 111.288L61.6235 111.294L61.7883 111.294L62.0039 101.322ZM69.6254 101.451L70.1705 91.4854L70.1534 91.4848L70.1363 91.4843L69.6254 101.451ZM86.2172 107.186L78.2202 113.352L78.3193 113.481L78.4226 113.606L86.2172 107.186ZM78.6367 133.408L83.4954 142.038L83.5058 142.032L83.5162 142.026L78.6367 133.408ZM56.204 126.091C46.3959 124.762 39.259 122.148 34.2446 118.736L22.706 135.263C30.9639 140.882 41.2871 144.249 53.1265 145.853L56.204 126.091ZM34.3215 118.789C29.2 115.232 25.9596 111.01 24.1662 106.087L5.29363 113.193C8.58129 122.218 14.5044 129.568 22.629 135.211L34.3215 118.789ZM24.1999 106.181C22.3746 101.007 21.8384 94.8701 22.9842 87.5125L3.16521 84.8275C1.6061 94.8393 2.17333 104.349 5.25995 113.099L24.1999 106.181ZM22.9842 87.5125C24.266 79.2812 26.9997 72.822 30.8831 67.7652L15.0282 55.8528C8.73077 64.053 4.87711 73.8346 3.16521 84.8275L22.9842 87.5125ZM30.9134 67.7256C34.8062 62.6054 39.7596 58.9476 46.0099 56.6558L39.3876 37.9595C29.521 41.5772 21.3124 47.587 14.998 55.8924L30.9134 67.7256ZM45.9656 56.672C52.2361 54.4055 59.8889 53.6561 69.2298 54.9216L72.3072 35.1598C60.5079 33.5612 49.4476 34.3232 39.432 37.9433L45.9656 56.672ZM69.2298 54.9216C77.9973 56.1094 82.824 58.5875 85.3348 61.1241L99.76 46.9979C93.0195 40.1882 83.327 36.6527 72.3072 35.1598L69.2298 54.9216ZM85.4611 61.2494C87.8184 63.5453 88.7221 66.0459 88.1276 69.8635L107.947 72.5485C109.479 62.7068 106.723 53.7773 99.6337 46.8726L85.4611 61.2494ZM88.1276 69.8635C87.6517 72.9194 86.641 74.1426 85.8454 74.7724L98.1543 90.2829C103.859 85.7666 106.873 79.442 107.947 72.5485L88.1276 69.8635ZM85.8384 74.778C85.5166 75.0332 84.3922 75.7985 80.9459 75.3316L77.8684 95.0934C84.9077 96.0471 92.1784 95.0224 98.1614 90.2773L85.8384 74.778ZM80.9459 75.3316C78.9104 75.0558 77.6451 74.6059 76.9051 74.2183L67.2965 91.9024C70.5481 93.6054 74.1537 94.5902 77.8684 95.0934L80.9459 75.3316ZM76.9051 74.2183C74.8053 73.1186 72.6967 72.0623 70.5792 71.0494L61.6078 89.0527C63.5083 89.9618 65.4045 90.9116 67.2965 91.9024L76.9051 74.2183ZM70.8978 71.209C67.6733 69.5202 64.1213 68.5322 60.4527 68.0352L57.3753 87.797C59.2877 88.0561 60.5221 88.4914 61.2892 88.8932L70.8978 71.209ZM60.4527 68.0352C57.0029 67.5678 53.5345 67.6663 50.1054 68.3921L53.9229 87.8952C54.9582 87.6761 56.0897 87.6228 57.3753 87.797L60.4527 68.0352ZM50.3403 68.3452C46.0715 69.1444 42.3209 71.2056 39.3269 74.3056L53.6655 87.9768C53.7137 87.9269 53.7404 87.9061 53.7437 87.9037C53.7457 87.9021 53.7436 87.9038 53.7375 87.9078C53.7314 87.9118 53.7227 87.917 53.712 87.9229C53.7013 87.9287 53.6902 87.9341 53.6795 87.9389C53.6688 87.9436 53.6602 87.9469 53.6545 87.9489C53.6489 87.9509 53.6479 87.951 53.6525 87.9498C53.657 87.9486 53.6686 87.9457 53.688 87.942L50.3403 68.3452ZM39.2604 74.3751C35.8597 77.9627 34.3541 82.4916 33.708 86.6408L53.5269 89.3258C53.667 88.4263 53.8378 87.9191 53.932 87.6951C54.0205 87.4849 53.9969 87.6279 53.7319 87.9074L39.2604 74.3751ZM33.708 86.6408C32.7911 92.5284 33.63 99.2333 38.8375 104.198L52.8612 89.6782C53.009 89.8191 53.1539 90 53.2704 90.2042C53.3851 90.4051 53.4334 90.5601 53.449 90.6229C53.463 90.6787 53.4403 90.6176 53.4364 90.4018C53.4324 90.1833 53.4481 89.8317 53.5269 89.3258L33.708 86.6408ZM38.9567 104.31C43.0441 108.078 48.2331 109.934 53.5567 110.655L56.6341 90.8929C54.0089 90.5373 53.0339 89.8355 52.742 89.5664L38.9567 104.31ZM53.5567 110.655C55.9861 110.984 58.6299 111.188 61.4588 111.288L62.549 91.3569C60.2255 91.2751 58.2636 91.1137 56.6341 90.8929L53.5567 110.655ZM61.7883 111.294C64.2829 111.3 66.7249 111.341 69.1145 111.417L70.1363 91.4843C67.5426 91.4018 64.9036 91.3573 62.2195 91.3507L61.7883 111.294ZM69.0803 111.416C71.4537 111.5 73.2756 111.647 74.6147 111.829L77.6921 92.0669C75.4796 91.7672 72.9495 91.5833 70.1705 91.4854L69.0803 111.416ZM74.6147 111.829C77.1458 112.172 77.9056 112.945 78.2202 113.352L94.2142 101.019C90.0739 95.6569 84.1244 92.9384 77.6921 92.0669L74.6147 111.829ZM78.4226 113.606C78.4735 113.667 78.6047 113.832 78.7038 114.329C78.815 114.888 78.8861 115.9 78.6334 117.523L98.4524 120.208C99.4959 113.506 98.6992 106.434 94.0118 100.765L78.4226 113.606ZM78.6334 117.523C78.0804 121.074 76.5595 123.185 73.7572 124.79L83.5162 142.026C91.9 137.225 96.9833 129.641 98.4524 120.208L78.6334 117.523ZM73.7779 124.778C71.1723 126.262 65.867 127.4 56.204 126.091L53.1265 145.853C64.4346 147.385 75.1102 146.813 83.4954 142.038L73.7779 124.778Z"
          fill="black"
          mask="url(#path-15-outside-4_0_1)"
        />
        <path
          d="M78.2631 50.8064C77.9518 49.9286 75.4021 49.6872 74.7583 49.5462C72.9546 49.1511 71.1328 48.9319 69.3147 48.6284C66.0001 48.075 62.5737 48.1188 59.228 48.317C53.1838 48.6751 47.2477 50.2426 41.7536 52.7476C39.1072 53.9542 36.3155 55.8077 33.9546 57.5207C31.515 59.291 29.384 61.0458 27.3601 63.2968C23.3504 67.7566 20.8035 73.3141 19 79.0171"
          stroke="#EEEEEE"
          strokeOpacity="0.5"
          strokeWidth="6"
          strokeLinecap="round"
          strokeLinejoin="round"
        />

        <mask
          id="path-18-outside-5_0_1"
          maskUnits="userSpaceOnUse"
          x="238.297"
          y="29.2081"
          width="112.785"
          height="120.563"
          fill="black"
        >
          <rect
            fill="white"
            x="238.297"
            y="29.2081"
            width="112.785"
            height="120.563"
          />
          <path d="M298.751 135.851C287.861 135.001 278.961 132.509 272.05 128.375C265.147 124.156 260.202 118.635 257.216 111.812C254.315 104.995 253.257 97.2095 254.043 88.4553C254.912 78.7662 257.67 70.4656 262.317 63.5534C266.971 56.5561 273.221 51.3524 281.065 47.9421C288.995 44.5385 298.278 43.2517 308.912 44.0817C318.866 44.8586 326.301 47.4502 331.217 51.8565C336.226 56.1845 338.422 61.7907 337.804 68.675C337.354 73.6895 335.592 77.5746 332.517 80.3302C329.536 83.0074 325.408 84.1402 320.133 83.7285C317.241 83.5027 314.765 82.9244 312.707 81.9934C310.649 81.0625 308.587 80.1741 306.521 79.3281C304.463 78.3972 302.03 77.8222 299.222 77.603C296.84 77.4171 294.551 77.6236 292.356 78.2225C290.253 78.7431 288.484 79.846 287.047 81.5312C285.704 83.1381 284.895 85.4714 284.62 88.5311C284.262 92.5257 285.197 95.4659 287.427 97.3517C289.742 99.2441 292.898 100.346 296.897 100.658C298.938 100.818 301.247 100.87 303.822 100.814C306.405 100.673 308.941 100.571 311.431 100.509C314.006 100.453 316.187 100.495 317.974 100.635C322.483 100.987 325.941 102.54 328.35 105.296C330.851 107.973 331.877 111.819 331.427 116.834C330.84 123.378 327.861 128.409 322.491 131.927C317.214 135.366 309.3 136.674 298.751 135.851Z" />
        </mask>
        <path
          d="M298.751 135.851C287.861 135.001 278.961 132.509 272.05 128.375C265.147 124.156 260.202 118.635 257.216 111.812C254.315 104.995 253.257 97.2095 254.043 88.4553C254.912 78.7662 257.67 70.4656 262.317 63.5534C266.971 56.5561 273.221 51.3524 281.065 47.9421C288.995 44.5385 298.278 43.2517 308.912 44.0817C318.866 44.8586 326.301 47.4502 331.217 51.8565C336.226 56.1845 338.422 61.7907 337.804 68.675C337.354 73.6895 335.592 77.5746 332.517 80.3302C329.536 83.0074 325.408 84.1402 320.133 83.7285C317.241 83.5027 314.765 82.9244 312.707 81.9934C310.649 81.0625 308.587 80.1741 306.521 79.3281C304.463 78.3972 302.03 77.8222 299.222 77.603C296.84 77.4171 294.551 77.6236 292.356 78.2225C290.253 78.7431 288.484 79.846 287.047 81.5312C285.704 83.1381 284.895 85.4714 284.62 88.5311C284.262 92.5257 285.197 95.4659 287.427 97.3517C289.742 99.2441 292.898 100.346 296.897 100.658C298.938 100.818 301.247 100.87 303.822 100.814C306.405 100.673 308.941 100.571 311.431 100.509C314.006 100.453 316.187 100.495 317.974 100.635C322.483 100.987 325.941 102.54 328.35 105.296C330.851 107.973 331.877 111.819 331.427 116.834C330.84 123.378 327.861 128.409 322.491 131.927C317.214 135.366 309.3 136.674 298.751 135.851Z"
          fill="#CBB8E5"
        />
        <path
          d="M272.05 128.375L266.752 136.911L266.792 136.936L266.832 136.96L272.05 128.375ZM257.216 111.812L247.996 115.806L248.016 115.852L248.036 115.898L257.216 111.812ZM262.317 63.5534L270.609 69.0539L270.623 69.0333L270.636 69.0127L262.317 63.5534ZM281.065 47.9421L277.2 38.7714L277.178 38.7807L277.157 38.7901L281.065 47.9421ZM331.217 51.8565L324.482 59.3236L324.549 59.3832L324.616 59.4416L331.217 51.8565ZM332.517 80.3302L325.877 72.9313L325.87 72.9373L332.517 80.3302ZM312.707 81.9934L308.489 91.1011L308.489 91.1011L312.707 81.9934ZM306.521 79.3281L302.303 88.4358L302.466 88.5094L302.631 88.5771L306.521 79.3281ZM292.356 78.2225L294.661 87.9175L294.777 87.8888L294.892 87.8573L292.356 78.2225ZM287.047 81.5312L279.454 75.1089L279.423 75.1453L279.392 75.1821L287.047 81.5312ZM287.427 97.3517L280.905 105.004L280.968 105.057L281.031 105.109L287.427 97.3517ZM303.822 100.814L303.925 110.802L304.089 110.798L304.254 110.789L303.822 100.814ZM311.431 100.509L311.328 90.5211L311.311 90.5215L311.294 90.5219L311.431 100.509ZM328.35 105.296L320.775 111.912L320.882 112.035L320.993 112.154L328.35 105.296ZM322.491 131.927L327.896 140.273L327.906 140.267L327.916 140.26L322.491 131.927ZM299.645 125.891C289.777 125.121 282.49 122.914 277.268 119.79L266.832 136.96C275.432 142.104 285.946 144.881 297.857 145.811L299.645 125.891ZM277.348 119.839C272.009 116.576 268.504 112.542 266.396 107.725L248.036 115.898C251.9 124.728 258.284 131.736 266.752 136.911L277.348 119.839ZM266.436 107.817C264.28 102.751 263.347 96.6499 264.012 89.2335L244.073 87.6772C243.168 97.7691 244.35 107.239 247.996 115.806L266.436 107.817ZM264.012 89.2335C264.757 80.9362 267.064 74.3272 270.609 69.0539L254.024 58.0528C248.276 66.604 245.067 76.5962 244.073 87.6772L264.012 89.2335ZM270.636 69.0127C274.187 63.6755 278.889 59.7393 284.974 57.0942L277.157 38.7901C267.552 42.9655 259.755 49.4368 253.997 58.094L270.636 69.0127ZM284.931 57.1128C291.037 54.4919 298.621 53.3082 308.018 54.0417L309.806 34.1217C297.935 33.1951 286.954 34.5851 277.2 38.7714L284.931 57.1128ZM308.018 54.0417C316.839 54.7302 321.814 56.9318 324.482 59.3236L337.952 44.3895C330.788 37.9686 320.892 34.987 309.806 34.1217L308.018 54.0417ZM324.616 59.4416C327.116 61.6016 328.179 64.0487 327.834 67.8969L347.774 69.4532C348.664 59.5327 345.336 50.7674 337.818 44.2715L324.616 59.4416ZM327.834 67.8969C327.558 70.9772 326.629 72.2568 325.877 72.9313L339.158 87.7291C344.554 82.8924 347.15 76.4018 347.774 69.4532L327.834 67.8969ZM325.87 72.9373C325.566 73.2106 324.494 74.0391 321.027 73.7685L319.239 93.6885C326.321 94.2413 333.506 92.8043 339.165 87.7231L325.87 72.9373ZM321.027 73.7685C318.979 73.6087 317.688 73.231 316.925 72.8858L308.489 91.1011C311.842 92.6178 315.502 93.3968 319.239 93.6885L321.027 73.7685ZM316.925 72.8858C314.759 71.9064 312.588 70.9708 310.41 70.0792L302.631 88.5771C304.585 89.3774 306.538 90.2186 308.489 91.1011L316.925 72.8858ZM310.738 70.2205C307.413 68.7164 303.807 67.9311 300.116 67.643L298.329 87.563C300.253 87.7132 301.512 88.078 302.303 88.4358L310.738 70.2205ZM300.116 67.643C296.645 67.3721 293.192 67.6677 289.82 68.5877L294.892 87.8573C295.91 87.5796 297.035 87.4621 298.329 87.563L300.116 67.643ZM290.051 68.5276C285.846 69.5687 282.239 71.8413 279.454 75.1089L294.641 87.9536C294.685 87.901 294.711 87.8787 294.714 87.876C294.716 87.8743 294.714 87.8761 294.708 87.8805C294.702 87.8848 294.694 87.8906 294.683 87.897C294.673 87.9034 294.662 87.9095 294.652 87.9148C294.642 87.9202 294.633 87.924 294.628 87.9263C294.622 87.9286 294.621 87.9287 294.626 87.9273C294.63 87.9258 294.642 87.9222 294.661 87.9175L290.051 68.5276ZM279.392 75.1821C276.233 78.9599 275.026 83.5705 274.65 87.753L294.59 89.3093C294.671 88.4025 294.809 87.886 294.888 87.6569C294.963 87.4419 294.948 87.5861 294.702 87.8804L279.392 75.1821ZM274.65 87.753C274.118 93.6877 275.39 100.339 280.905 105.004L293.949 89.6992C294.105 89.8316 294.262 90.0041 294.391 90.2015C294.518 90.3957 294.577 90.5479 294.596 90.6097C294.614 90.6646 294.587 90.6049 294.569 90.3895C294.551 90.1714 294.544 89.8192 294.59 89.3093L274.65 87.753ZM281.031 105.109C285.352 108.642 290.647 110.2 296.003 110.618L297.79 90.6984C295.149 90.4923 294.131 89.8466 293.823 89.5943L281.031 105.109ZM296.003 110.618C298.447 110.809 301.097 110.863 303.925 110.802L303.719 90.8258C301.397 90.8761 299.43 90.8264 297.79 90.6984L296.003 110.618ZM304.254 110.789C306.742 110.654 309.18 110.556 311.568 110.496L311.294 90.5219C308.702 90.5868 306.067 90.6925 303.39 90.8384L304.254 110.789ZM311.534 110.497C313.906 110.446 315.733 110.489 317.08 110.595L318.867 90.6746C316.641 90.5009 314.106 90.4609 311.328 90.5211L311.534 110.497ZM317.08 110.595C319.627 110.793 320.435 111.523 320.775 111.912L335.925 98.6798C331.448 93.5578 325.339 91.1797 318.867 90.6746L317.08 110.595ZM320.993 112.154C321.048 112.212 321.189 112.369 321.32 112.861C321.468 113.413 321.604 114.42 321.457 116.055L341.397 117.612C342.003 110.857 340.749 103.835 335.707 98.4382L320.993 112.154ZM321.457 116.055C321.136 119.635 319.756 121.831 317.066 123.594L327.916 140.26C335.966 134.987 340.544 127.121 341.397 117.612L321.457 116.055ZM317.086 123.581C314.583 125.211 309.366 126.65 299.645 125.891L297.857 145.811C309.234 146.699 319.844 145.521 327.896 140.273L317.086 123.581Z"
          fill="black"
          mask="url(#path-18-outside-5_0_1)"
        />
        <path
          d="M310.016 47.8714C309.54 47.0708 306.992 47.3295 306.333 47.3163C304.487 47.2793 302.658 47.4184 300.815 47.474C297.456 47.5754 294.104 48.2843 290.86 49.129C285.001 50.655 279.483 53.3463 274.58 56.8713C272.219 58.5693 269.841 60.93 267.858 63.0692C265.809 65.2799 264.059 67.4154 262.511 70.0168C259.445 75.1709 258.027 81.1174 257.366 87.0622"
          stroke="#EEEEEE"
          strokeOpacity="0.5"
          strokeWidth="6"
          strokeLinecap="round"
          strokeLinejoin="round"
        />

        <mask
          id="path-21-outside-6_0_1"
          maskUnits="userSpaceOnUse"
          x="386.548"
          y="28.0193"
          width="118.81"
          height="128.531"
          fill="black"
        >
          <rect
            fill="white"
            x="386.548"
            y="28.0193"
            width="118.81"
            height="128.531"
          />
          <path d="M422.11 139.06C416.167 138.458 411.627 137.483 408.491 136.136C405.355 134.789 403.233 133.116 402.124 131.117C401.1 129.127 400.655 126.894 400.787 124.421C401.055 120.417 402.667 117.193 405.623 114.748C408.665 112.312 413.824 111.119 421.1 111.17L415.8 115.908C415.406 112.609 415.23 108.774 415.272 104.405C415.315 100.035 415.585 95.5171 416.082 90.8505C416.579 86.1839 417.185 81.7427 417.9 77.527C418.699 73.3198 419.612 69.7674 420.638 66.8697L436.373 69.1071C434.523 69.6915 432.171 70.1393 429.316 70.4505C426.555 70.6852 423.773 70.6607 420.971 70.3768C415.028 69.7747 410.746 68.3116 408.124 65.9877C405.503 63.6638 404.353 60.6742 404.675 57.0191C405.14 51.7488 407.927 47.8288 413.036 45.259C418.23 42.6978 425.921 41.9333 436.109 42.9655C448.504 44.2214 458.782 47.1495 466.942 51.7499C475.194 56.2738 481.235 62.0745 485.065 69.1521C488.903 76.1447 490.436 84.0186 489.664 92.774C488.989 100.424 486.881 107.329 483.34 113.488C479.806 119.562 475.028 124.696 469.005 128.888C463.074 133.004 456.13 135.989 448.171 137.841C440.221 139.608 431.534 140.014 422.11 139.06ZM444.888 108.049C447.181 108.281 449.317 107.854 451.297 106.768C453.285 105.597 454.935 103.878 456.249 101.61C457.57 99.2564 458.377 96.4222 458.669 93.1071C458.909 90.3869 458.744 87.8831 458.175 85.5956C457.691 83.3167 456.883 81.3052 455.752 79.5611C454.621 77.817 453.244 76.434 451.621 75.4119C450.09 74.3134 448.391 73.6695 446.523 73.4803C445.335 73.3599 444.321 73.686 443.482 74.4586C442.728 75.2398 442.122 76.7651 441.665 79.0344C441.215 81.2186 440.811 84.3509 440.451 88.431C439.866 95.0613 439.864 99.9495 440.443 103.096C441.029 106.157 442.511 107.808 444.888 108.049Z" />
        </mask>
        <path
          d="M422.11 139.06C416.167 138.458 411.627 137.483 408.491 136.136C405.355 134.789 403.233 133.116 402.124 131.117C401.1 129.127 400.655 126.894 400.787 124.421C401.055 120.417 402.667 117.193 405.623 114.748C408.665 112.312 413.824 111.119 421.1 111.17L415.8 115.908C415.406 112.609 415.23 108.774 415.272 104.405C415.315 100.035 415.585 95.5171 416.082 90.8505C416.579 86.1839 417.185 81.7427 417.9 77.527C418.699 73.3198 419.612 69.7674 420.638 66.8697L436.373 69.1071C434.523 69.6915 432.171 70.1393 429.316 70.4505C426.555 70.6852 423.773 70.6607 420.971 70.3768C415.028 69.7747 410.746 68.3116 408.124 65.9877C405.503 63.6638 404.353 60.6742 404.675 57.0191C405.14 51.7488 407.927 47.8288 413.036 45.259C418.23 42.6978 425.921 41.9333 436.109 42.9655C448.504 44.2214 458.782 47.1495 466.942 51.7499C475.194 56.2738 481.235 62.0745 485.065 69.1521C488.903 76.1447 490.436 84.0186 489.664 92.774C488.989 100.424 486.881 107.329 483.34 113.488C479.806 119.562 475.028 124.696 469.005 128.888C463.074 133.004 456.13 135.989 448.171 137.841C440.221 139.608 431.534 140.014 422.11 139.06ZM444.888 108.049C447.181 108.281 449.317 107.854 451.297 106.768C453.285 105.597 454.935 103.878 456.249 101.61C457.57 99.2564 458.377 96.4222 458.669 93.1071C458.909 90.3869 458.744 87.8831 458.175 85.5956C457.691 83.3167 456.883 81.3052 455.752 79.5611C454.621 77.817 453.244 76.434 451.621 75.4119C450.09 74.3134 448.391 73.6695 446.523 73.4803C445.335 73.3599 444.321 73.686 443.482 74.4586C442.728 75.2398 442.122 76.7651 441.665 79.0344C441.215 81.2186 440.811 84.3509 440.451 88.431C439.866 95.0613 439.864 99.9495 440.443 103.096C441.029 106.157 442.511 107.808 444.888 108.049Z"
          fill="#EFB978"
        />
        <path
          d="M408.491 136.136L412.325 126.941L412.325 126.941L408.491 136.136ZM402.124 131.117L393.259 135.615L393.332 135.756L393.409 135.896L402.124 131.117ZM400.787 124.421L390.822 123.625L390.817 123.691L390.814 123.757L400.787 124.421ZM405.623 114.748L399.328 106.895L399.268 106.943L399.209 106.991L405.623 114.748ZM421.1 111.17L427.8 118.681L447.199 101.342L421.042 101.158L421.1 111.17ZM415.8 115.908L405.883 116.973L408.183 136.214L422.5 123.418L415.8 115.908ZM415.272 104.405L405.285 104.179L405.285 104.179L415.272 104.405ZM416.082 90.8505L426.014 92.0395L426.014 92.0395L416.082 90.8505ZM417.9 77.527L408.087 75.5327L408.069 75.6301L408.052 75.7278L417.9 77.527ZM420.638 66.8697L421.917 56.957L413.911 55.8187L411.221 63.4126L420.638 66.8697ZM436.373 69.1071L439.485 78.6601L437.652 59.1945L436.373 69.1071ZM429.316 70.4505L430.287 80.427L430.404 80.417L430.522 80.4042L429.316 70.4505ZM408.124 65.9877L401.562 73.4509L401.562 73.4509L408.124 65.9877ZM413.036 45.259L408.536 36.2638L408.501 36.281L408.466 36.2985L413.036 45.259ZM466.942 51.7499L462.131 60.4616L462.183 60.4913L462.236 60.5203L466.942 51.7499ZM485.065 69.1521L476.3 73.8389L476.314 73.8654L476.329 73.8917L485.065 69.1521ZM483.34 113.488L491.984 118.614L491.997 118.593L492.009 118.571L483.34 113.488ZM469.005 128.888L474.761 137.144L474.772 137.136L469.005 128.888ZM448.171 137.841L450.452 147.617L450.5 147.606L450.548 147.595L448.171 137.841ZM451.297 106.768L456.176 115.566L456.308 115.494L456.438 115.417L451.297 106.768ZM456.249 101.61L464.903 106.719L464.936 106.662L464.968 106.604L456.249 101.61ZM458.175 85.5956L448.408 87.5617L448.444 87.7322L448.486 87.9015L458.175 85.5956ZM455.752 79.5611L447.399 84.9424L447.399 84.9424L455.752 79.5611ZM451.621 75.4119L445.876 83.5276L446.126 83.7069L446.386 83.8708L451.621 75.4119ZM443.482 74.4586L436.674 67.0455L436.462 67.241L436.262 67.4487L443.482 74.4586ZM441.665 79.0344L451.448 81.1776L451.452 81.1569L451.456 81.1363L441.665 79.0344ZM440.443 103.096L430.621 104.79L430.628 104.827L430.635 104.863L440.443 103.096ZM422.988 129.098C417.417 128.534 414.065 127.688 412.325 126.941L404.658 145.331C409.19 147.278 414.917 148.381 421.231 149.021L422.988 129.098ZM412.325 126.941C411.366 126.529 410.866 126.195 410.659 126.031C410.469 125.881 410.629 125.96 410.839 126.338L393.409 135.896C396.038 140.636 400.436 143.518 404.658 145.331L412.325 126.941ZM410.989 126.619C410.877 126.401 410.713 125.982 410.761 125.085L390.814 123.757C390.597 127.807 391.324 131.853 393.259 135.615L410.989 126.619ZM410.753 125.217C410.846 123.815 411.257 123.15 412.037 122.504L399.209 106.991C394.076 111.236 391.263 117.019 390.822 123.625L410.753 125.217ZM411.919 122.601C412.218 122.361 414.452 121.135 421.158 121.182L421.042 101.158C413.196 101.103 405.112 102.262 399.328 106.895L411.919 122.601ZM414.4 103.659L409.1 108.397L422.5 123.418L427.8 118.681L414.4 103.659ZM425.717 114.842C425.387 112.082 425.22 108.696 425.26 104.631L405.285 104.179C405.24 108.853 405.425 113.136 405.883 116.973L425.717 114.842ZM425.26 104.631C425.299 100.606 425.548 96.41 426.014 92.0395L406.151 89.6615C405.622 94.6242 405.331 99.4643 405.285 104.179L425.26 104.631ZM426.014 92.0395C426.491 87.5579 427.07 83.3213 427.747 79.3262L408.052 75.7278C407.301 80.1642 406.668 84.8099 406.151 89.6615L426.014 92.0395ZM427.712 79.5212C428.45 75.6349 429.248 72.6045 430.055 70.3267L411.221 63.4126C409.975 66.9302 408.948 71.0047 408.087 75.5327L427.712 79.5212ZM419.36 76.7823L435.095 79.0198L437.652 59.1945L421.917 56.957L419.36 76.7823ZM433.261 59.5541C432.248 59.8741 430.593 60.2262 428.111 60.4968L430.522 80.4042C433.748 80.0524 436.797 79.509 439.485 78.6601L433.261 59.5541ZM428.346 60.474C426.208 60.6558 424.045 60.6379 421.85 60.4155L420.093 80.3382C423.501 80.6835 426.902 80.7147 430.287 80.427L428.346 60.474ZM421.85 60.4155C416.662 59.8899 414.934 58.7441 414.687 58.5245L401.562 73.4509C406.558 77.8792 413.395 79.6595 420.093 80.3382L421.85 60.4155ZM414.687 58.5245C414.569 58.4199 414.537 58.3701 414.547 58.3849C414.56 58.403 414.587 58.4477 414.609 58.5055C414.631 58.5618 414.627 58.5759 414.62 58.5208C414.613 58.4609 414.6 58.3035 414.624 58.0271L394.726 56.011C394.141 62.6517 396.383 68.8602 401.562 73.4509L414.687 58.5245ZM414.624 58.0271C414.757 56.5172 415.226 55.4167 417.606 54.2195L408.466 36.2985C400.628 40.2409 395.523 46.9805 394.726 56.011L414.624 58.0271ZM417.536 54.2542C420.236 52.9232 425.671 51.9584 435.23 52.9269L436.987 33.0042C426.17 31.9082 416.224 32.4724 408.536 36.2638L417.536 54.2542ZM435.23 52.9269C446.686 54.0875 455.519 56.7343 462.131 60.4616L471.753 43.0381C462.044 37.5647 450.322 34.3553 436.987 33.0042L435.23 52.9269ZM462.236 60.5203C469.072 64.2676 473.553 68.7629 476.3 73.8389L493.831 64.4653C488.918 55.3862 481.316 48.28 471.647 42.9794L462.236 60.5203ZM476.329 73.8917C479.097 78.9364 480.331 84.773 479.714 91.766L499.613 93.782C500.54 83.2642 498.709 73.353 493.802 64.4126L476.329 73.8917ZM479.714 91.766C479.157 98.0882 477.442 103.585 474.67 108.406L492.009 118.571C496.32 111.073 498.821 102.76 499.613 93.782L479.714 91.766ZM474.696 108.362C471.916 113.141 468.141 117.227 463.238 120.64L474.772 137.136C481.915 132.164 487.696 125.984 491.984 118.614L474.696 108.362ZM463.249 120.633C458.462 123.955 452.696 126.48 445.795 128.087L450.548 147.595C459.564 145.497 467.687 142.053 474.761 137.144L463.249 120.633ZM445.891 128.065C439.124 129.569 431.518 129.963 422.988 129.098L421.231 149.021C431.549 150.066 441.318 149.647 450.452 147.617L445.891 128.065ZM444.01 118.01C448.272 118.442 452.418 117.627 456.176 115.566L446.418 97.9701C446.215 98.0813 446.089 98.12 445.767 98.0873L444.01 118.01ZM456.438 115.417C460.069 113.279 462.858 110.251 464.903 106.719L447.595 96.5005C447.013 97.5051 446.501 97.9162 446.156 98.1193L456.438 115.417ZM464.968 106.604C467.114 102.783 468.229 98.5234 468.618 94.1151L448.72 92.099C448.524 94.321 448.026 95.7302 447.53 96.6151L464.968 106.604ZM468.618 94.1151C468.94 90.4631 468.743 86.8227 467.864 83.2897L448.486 87.9015C448.745 88.9435 448.878 90.3108 448.72 92.099L468.618 94.1151ZM467.943 83.6296C467.232 80.2865 465.992 77.0888 464.105 74.1798L447.399 84.9424C447.775 85.5217 448.15 86.347 448.408 87.5617L467.943 83.6296ZM464.105 74.1798C462.237 71.2997 459.829 68.8252 456.856 66.953L446.386 83.8708C446.659 84.0427 447.005 84.3344 447.399 84.9424L464.105 74.1798ZM457.366 67.2961C454.395 65.1638 451.016 63.8852 447.402 63.519L445.645 83.4416C445.696 83.4469 445.728 83.4533 445.745 83.4571C445.761 83.4608 445.769 83.4637 445.772 83.465C445.776 83.4663 445.783 83.4692 445.796 83.4764C445.809 83.4836 445.836 83.499 445.876 83.5276L457.366 67.2961ZM447.402 63.519C443.523 63.1259 439.679 64.2789 436.674 67.0455L450.289 81.8716C449.74 82.3775 448.979 82.8673 448.033 83.1717C447.097 83.4729 446.256 83.5036 445.645 83.4416L447.402 63.519ZM436.262 67.4487C433.387 70.4265 432.37 74.4693 431.874 76.9324L451.456 81.1363C451.53 80.7703 451.598 80.4928 451.654 80.292C451.682 80.1931 451.705 80.1191 451.722 80.0677C451.739 80.016 451.749 79.9924 451.748 79.9934C451.748 79.994 451.735 80.0265 451.707 80.0854C451.679 80.1439 451.631 80.2379 451.559 80.3593C451.424 80.5893 451.155 80.9994 450.702 81.4685L436.262 67.4487ZM431.882 76.8911C431.317 79.6385 430.873 83.2195 430.502 87.423L450.4 89.4391C450.749 85.4822 451.114 82.7988 451.448 81.1776L431.882 76.8911ZM430.502 87.423C429.904 94.1983 429.781 100.227 430.621 104.79L450.264 101.401C449.946 99.672 449.828 95.9243 450.4 89.4391L430.502 87.423ZM430.635 104.863C431.14 107.499 432.224 110.618 434.608 113.274C437.184 116.145 440.552 117.66 444.01 118.01L445.767 98.0873C446.22 98.1332 446.858 98.2722 447.568 98.6201C448.291 98.9744 448.906 99.4568 449.38 99.9857C450.282 100.99 450.332 101.753 450.25 101.328L430.635 104.863Z"
          fill="black"
          mask="url(#path-21-outside-6_0_1)"
        />
        <path
          d="M441 46.5C439.5 46 437.016 45.6502 436 45.5C434.768 45.318 432.73 45.1257 432.439 45.1304C430.05 45.1687 427.725 44.9777 425.339 45.3024C421.476 45.8284 416.448 45.7076 413.5 48.5"
          stroke="#EEEEEE"
          strokeOpacity="0.5"
          strokeWidth="6"
          strokeLinecap="round"
          strokeLinejoin="round"
        />
        <path
          d="M460 80.5C460.891 82.3495 461.36 84.1751 461.81 86.1704C461.988 86.9582 462.367 89.7377 462.5 90.5C462.5 94.5 461.632 96.4714 461 99"
          stroke="#EEEEEE"
          strokeOpacity="0.5"
          strokeWidth="6"
          strokeLinecap="round"
          strokeLinejoin="round"
        />
        <path
          d="M452 72L455 74"
          stroke="#EEEEEE"
          strokeOpacity="0.5"
          strokeWidth="6"
          strokeLinecap="round"
          strokeLinejoin="round"
        />

        <mask
          id="path-26-outside-7_0_1"
          maskUnits="userSpaceOnUse"
          x="326"
          y="29"
          width="100"
          height="116"
          fill="black"
        >
          <rect fill="white" x="326" y="29" width="100" height="116" />
          <path d="M351.896 134.896C347.032 134.896 343.32 133.488 340.76 130.672C338.2 127.771 336.92 122.608 336.92 115.184C336.92 112.027 337.261 108.272 337.944 103.92C338.712 99.4827 339.736 94.7893 341.016 89.84C342.296 84.8907 343.747 79.9413 345.368 74.992C347.075 69.9573 348.909 65.3067 350.872 61.04C353.517 55.3227 356.291 50.928 359.192 47.856C362.093 44.6987 365.165 42.5227 368.408 41.328C371.651 40.048 375.064 39.408 378.648 39.408C384.195 39.408 389.229 40.944 393.752 44.016C398.36 47.088 402.243 52.5493 405.4 60.4C407.192 64.8373 408.856 69.9573 410.392 75.76C412.013 81.4773 413.293 87.536 414.232 93.936C415.171 100.336 415.64 106.736 415.64 113.136C415.64 120.645 414.061 126.149 410.904 129.648C407.747 133.147 403.309 134.896 397.592 134.896C392.813 134.896 389.016 133.616 386.2 131.056C383.384 128.496 381.677 124.229 381.08 118.256C380.739 114.416 380.568 110.448 380.568 106.352C380.568 102.256 380.739 98.288 381.08 94.448L389.144 104.048C387.011 104.731 384.323 105.157 381.08 105.328C377.837 105.499 374.467 105.413 370.968 105.072C367.555 104.731 364.355 104.091 361.368 103.152L372.632 94.704C372.717 98.8853 372.504 102.981 371.992 106.992C371.48 111.003 370.883 114.629 370.2 117.872C369.688 121.627 368.707 124.784 367.256 127.344C365.805 129.819 363.8 131.696 361.24 132.976C358.765 134.256 355.651 134.896 351.896 134.896ZM377.88 85.488C381.379 85.488 384.109 84.6347 386.072 82.928C388.12 81.136 389.144 78.8747 389.144 76.144C389.144 74.9493 388.888 73.712 388.376 72.432C387.864 71.152 387.139 70 386.2 68.976C385.261 67.8667 384.109 66.9707 382.744 66.288C381.379 65.6053 379.843 65.264 378.136 65.264C376.429 65.264 374.893 65.648 373.528 66.416C372.163 67.0987 370.968 68.0373 369.944 69.232C369.005 70.3413 368.237 71.6213 367.64 73.072C367.128 74.4373 366.872 75.8027 366.872 77.168C366.872 79.5573 367.853 81.5627 369.816 83.184C371.864 84.72 374.552 85.488 377.88 85.488Z" />
        </mask>
        <path
          d="M351.896 134.896C347.032 134.896 343.32 133.488 340.76 130.672C338.2 127.771 336.92 122.608 336.92 115.184C336.92 112.027 337.261 108.272 337.944 103.92C338.712 99.4827 339.736 94.7893 341.016 89.84C342.296 84.8907 343.747 79.9413 345.368 74.992C347.075 69.9573 348.909 65.3067 350.872 61.04C353.517 55.3227 356.291 50.928 359.192 47.856C362.093 44.6987 365.165 42.5227 368.408 41.328C371.651 40.048 375.064 39.408 378.648 39.408C384.195 39.408 389.229 40.944 393.752 44.016C398.36 47.088 402.243 52.5493 405.4 60.4C407.192 64.8373 408.856 69.9573 410.392 75.76C412.013 81.4773 413.293 87.536 414.232 93.936C415.171 100.336 415.64 106.736 415.64 113.136C415.64 120.645 414.061 126.149 410.904 129.648C407.747 133.147 403.309 134.896 397.592 134.896C392.813 134.896 389.016 133.616 386.2 131.056C383.384 128.496 381.677 124.229 381.08 118.256C380.739 114.416 380.568 110.448 380.568 106.352C380.568 102.256 380.739 98.288 381.08 94.448L389.144 104.048C387.011 104.731 384.323 105.157 381.08 105.328C377.837 105.499 374.467 105.413 370.968 105.072C367.555 104.731 364.355 104.091 361.368 103.152L372.632 94.704C372.717 98.8853 372.504 102.981 371.992 106.992C371.48 111.003 370.883 114.629 370.2 117.872C369.688 121.627 368.707 124.784 367.256 127.344C365.805 129.819 363.8 131.696 361.24 132.976C358.765 134.256 355.651 134.896 351.896 134.896ZM377.88 85.488C381.379 85.488 384.109 84.6347 386.072 82.928C388.12 81.136 389.144 78.8747 389.144 76.144C389.144 74.9493 388.888 73.712 388.376 72.432C387.864 71.152 387.139 70 386.2 68.976C385.261 67.8667 384.109 66.9707 382.744 66.288C381.379 65.6053 379.843 65.264 378.136 65.264C376.429 65.264 374.893 65.648 373.528 66.416C372.163 67.0987 370.968 68.0373 369.944 69.232C369.005 70.3413 368.237 71.6213 367.64 73.072C367.128 74.4373 366.872 75.8027 366.872 77.168C366.872 79.5573 367.853 81.5627 369.816 83.184C371.864 84.72 374.552 85.488 377.88 85.488Z"
          fill="#9EBB81"
        />
        <path
          d="M340.76 130.672L333.262 137.288L333.311 137.344L333.361 137.399L340.76 130.672ZM337.944 103.92L328.09 102.215L328.077 102.292L328.065 102.37L337.944 103.92ZM341.016 89.84L331.335 87.3362L331.335 87.3362L341.016 89.84ZM345.368 74.992L335.897 71.7816L335.881 71.8302L335.865 71.8789L345.368 74.992ZM350.872 61.04L341.796 56.8408L341.792 56.8509L341.787 56.8609L350.872 61.04ZM359.192 47.856L366.462 54.7222L366.509 54.6726L366.555 54.6222L359.192 47.856ZM368.408 41.328L371.865 50.7114L371.973 50.6717L372.08 50.6295L368.408 41.328ZM393.752 44.016L388.133 52.2882L388.169 52.3125L388.205 52.3365L393.752 44.016ZM405.4 60.4L396.122 64.1313L396.125 64.138L396.128 64.1446L405.4 60.4ZM410.392 75.76L400.725 78.3189L400.747 78.4038L400.771 78.4882L410.392 75.76ZM414.232 93.936L404.338 95.3871L404.338 95.3871L414.232 93.936ZM410.904 129.648L403.48 122.948L410.904 129.648ZM386.2 131.056L379.473 138.455L379.473 138.455L386.2 131.056ZM381.08 118.256L371.119 119.141L371.124 119.196L371.13 119.251L381.08 118.256ZM381.08 94.448L388.737 88.0161L373.251 69.5803L371.119 93.5626L381.08 94.448ZM389.144 104.048L392.192 113.572L406.388 109.029L396.801 97.6161L389.144 104.048ZM381.08 105.328L381.606 115.314L381.606 115.314L381.08 105.328ZM370.968 105.072L369.973 115.022L369.985 115.024L369.997 115.025L370.968 105.072ZM361.368 103.152L355.368 95.152L339.774 106.848L358.37 112.692L361.368 103.152ZM372.632 94.704L382.63 94.5L382.232 75.004L366.632 86.704L372.632 94.704ZM371.992 106.992L362.073 105.726L362.073 105.726L371.992 106.992ZM370.2 117.872L360.415 115.812L360.34 116.164L360.292 116.521L370.2 117.872ZM367.256 127.344L375.883 132.401L375.92 132.338L375.956 132.274L367.256 127.344ZM361.24 132.976L356.768 124.032L356.707 124.062L356.646 124.094L361.24 132.976ZM386.072 82.928L392.634 90.4741L392.645 90.4639L392.657 90.4538L386.072 82.928ZM388.376 72.432L397.661 68.7181L397.661 68.7181L388.376 72.432ZM386.2 68.976L378.566 75.4354L378.694 75.5869L378.828 75.7332L386.2 68.976ZM382.744 66.288L387.216 57.3437L387.216 57.3437L382.744 66.288ZM373.528 66.416L378 75.3603L378.218 75.2513L378.431 75.1318L373.528 66.416ZM369.944 69.232L362.351 62.7241L362.331 62.7483L362.31 62.7726L369.944 69.232ZM367.64 73.072L358.393 69.2645L358.333 69.4117L358.277 69.5608L367.64 73.072ZM369.816 83.184L363.447 90.8936L363.628 91.0431L363.816 91.184L369.816 83.184ZM351.896 124.896C349.015 124.896 348.328 124.13 348.159 123.945L333.361 137.399C338.312 142.846 345.049 144.896 351.896 144.896V124.896ZM348.258 124.056C348.365 124.176 347.977 123.793 347.586 122.218C347.201 120.665 346.92 118.378 346.92 115.184H326.92C326.92 123.096 328.15 131.495 333.262 137.288L348.258 124.056ZM346.92 115.184C346.92 112.703 347.192 109.493 347.823 105.47L328.065 102.37C327.331 107.051 326.92 111.35 326.92 115.184H346.92ZM347.798 105.625C348.513 101.489 349.477 97.064 350.697 92.3438L331.335 87.3362C329.995 92.5147 328.911 97.4759 328.09 102.215L347.798 105.625ZM350.697 92.3438C351.923 87.6032 353.314 82.857 354.871 78.1051L335.865 71.8789C334.179 77.0256 332.669 82.1781 331.335 87.3362L350.697 92.3438ZM354.839 78.2024C356.448 73.455 358.157 69.1318 359.957 65.219L341.787 56.8609C339.662 61.4815 337.701 66.4597 335.897 71.7816L354.839 78.2024ZM359.948 65.2392C362.339 60.0697 364.572 56.724 366.462 54.7222L351.922 40.9898C348.01 45.1319 344.695 50.5756 341.796 56.8408L359.948 65.2392ZM366.555 54.6222C368.635 52.3588 370.43 51.24 371.865 50.7114L364.951 31.9446C359.9 33.8054 355.551 37.0385 351.829 41.0897L366.555 54.6222ZM372.08 50.6295C374.12 49.8241 376.285 49.408 378.648 49.408V29.408C373.843 29.408 369.181 30.2719 364.736 32.0264L372.08 50.6295ZM378.648 49.408C382.222 49.408 385.294 50.3593 388.133 52.2882L399.371 35.7438C393.165 31.5287 386.167 29.408 378.648 29.408V49.408ZM388.205 52.3365C390.464 53.8425 393.346 57.229 396.122 64.1313L414.678 56.6687C411.139 47.8697 406.256 40.3334 399.299 35.6955L388.205 52.3365ZM396.128 64.1446C397.73 68.1128 399.27 72.823 400.725 78.3189L420.059 73.2011C418.442 67.0917 416.654 61.5619 414.672 56.6554L396.128 64.1446ZM400.771 78.4882C402.264 83.7514 403.457 89.3809 404.338 95.3871L424.126 92.4849C423.13 85.6911 421.763 79.2033 420.013 73.0318L400.771 78.4882ZM404.338 95.3871C405.207 101.312 405.64 107.227 405.64 113.136H425.64C425.64 106.245 425.135 99.3602 424.126 92.4849L404.338 95.3871ZM405.64 113.136C405.64 119.565 404.236 122.11 403.48 122.948L418.328 136.348C423.886 130.188 425.64 121.725 425.64 113.136H405.64ZM403.48 122.948C402.617 123.905 401.133 124.896 397.592 124.896V144.896C405.485 144.896 412.876 142.389 418.328 136.348L403.48 122.948ZM397.592 124.896C394.64 124.896 393.465 124.146 392.927 123.657L379.473 138.455C384.567 143.086 390.987 144.896 397.592 144.896V124.896ZM392.927 123.657C392.745 123.491 391.517 122.129 391.03 117.261L371.13 119.251C371.838 126.33 374.023 133.501 379.473 138.455L392.927 123.657ZM391.041 117.371C390.727 113.843 390.568 110.171 390.568 106.352H370.568C370.568 110.725 370.75 114.989 371.119 119.141L391.041 117.371ZM390.568 106.352C390.568 102.533 390.727 98.8614 391.041 95.3334L371.119 93.5626C370.75 97.7146 370.568 101.979 370.568 106.352H390.568ZM373.423 100.88L381.487 110.48L396.801 97.6161L388.737 88.0161L373.423 100.88ZM386.096 94.5238C385.056 94.8566 383.288 95.198 380.554 95.3418L381.606 115.314C385.358 115.117 388.965 114.605 392.192 113.572L386.096 94.5238ZM380.554 95.3418C377.85 95.4842 374.981 95.416 371.939 95.1193L369.997 115.025C373.953 115.411 377.825 115.513 381.606 115.314L380.554 95.3418ZM371.963 95.1216C369.166 94.8419 366.642 94.3274 364.366 93.6121L358.37 112.692C362.067 113.854 365.944 114.619 369.973 115.022L371.963 95.1216ZM367.368 111.152L378.632 102.704L366.632 86.704L355.368 95.152L367.368 111.152ZM362.634 94.908C362.71 98.6148 362.52 102.219 362.073 105.726L381.911 108.258C382.488 103.744 382.725 99.1559 382.63 94.5L362.634 94.908ZM362.073 105.726C361.587 109.526 361.031 112.881 360.415 115.812L379.985 119.932C380.734 116.377 381.373 112.48 381.911 108.258L362.073 105.726ZM360.292 116.521C359.904 119.363 359.228 121.227 358.556 122.414L375.956 132.274C378.185 128.341 379.472 123.891 380.108 119.223L360.292 116.521ZM358.629 122.287C358.155 123.095 357.592 123.62 356.768 124.032L365.712 141.92C370.008 139.772 373.455 136.543 375.883 132.401L358.629 122.287ZM356.646 124.094C355.998 124.429 354.583 124.896 351.896 124.896V144.896C356.719 144.896 361.533 144.083 365.834 141.858L356.646 124.094ZM377.88 95.488C382.95 95.488 388.304 94.2388 392.634 90.4741L379.51 75.3819C379.671 75.2421 379.749 75.247 379.569 75.3032C379.357 75.3697 378.835 75.488 377.88 75.488V95.488ZM392.657 90.4538C396.884 86.7554 399.144 81.7469 399.144 76.144H379.144C379.144 76.1996 379.139 76.1771 379.156 76.0946C379.173 76.0093 379.208 75.8928 379.266 75.7629C379.325 75.633 379.391 75.5285 379.446 75.4558C379.5 75.3853 379.524 75.3701 379.487 75.4022L392.657 90.4538ZM399.144 76.144C399.144 73.4969 398.573 70.9996 397.661 68.7181L379.091 76.1459C379.148 76.2882 379.161 76.3532 379.159 76.346C379.159 76.3424 379.155 76.3223 379.151 76.2868C379.147 76.2512 379.144 76.2031 379.144 76.144H399.144ZM397.661 68.7181C396.697 66.3077 395.32 64.1263 393.572 62.2187L378.828 75.7332C378.957 75.8737 379.031 75.9963 379.091 76.1459L397.661 68.7181ZM393.834 62.5166C391.977 60.3216 389.731 58.6009 387.216 57.3437L378.272 75.2323C378.488 75.3404 378.546 75.4117 378.566 75.4354L393.834 62.5166ZM387.216 57.3437C384.306 55.8884 381.21 55.264 378.136 55.264V75.264C378.229 75.264 378.295 75.2687 378.337 75.2731C378.379 75.2774 378.398 75.2817 378.399 75.2819C378.399 75.2819 378.385 75.2788 378.36 75.2699C378.335 75.261 378.304 75.2485 378.272 75.2323L387.216 57.3437ZM378.136 55.264C374.87 55.264 371.619 56.0161 368.625 57.7002L378.431 75.1318C378.327 75.1901 378.218 75.2313 378.129 75.2534C378.045 75.2745 378.037 75.264 378.136 75.264V55.264ZM369.056 57.4717C366.461 58.7689 364.216 60.5493 362.351 62.7241L377.537 75.7399C377.72 75.5254 377.864 75.4284 378 75.3603L369.056 57.4717ZM362.31 62.7726C360.648 64.7373 359.355 66.9278 358.393 69.2645L376.887 76.8795C377.119 76.3149 377.363 75.9453 377.578 75.6914L362.31 62.7726ZM358.277 69.5608C357.373 71.972 356.872 74.5241 356.872 77.168H376.872C376.872 77.0813 376.883 76.9027 377.003 76.5832L358.277 69.5608ZM356.872 77.168C356.872 82.7566 359.357 87.5149 363.447 90.8936L376.185 75.4744C376.147 75.443 376.373 75.6254 376.59 76.0685C376.816 76.5292 376.872 76.9484 376.872 77.168H356.872ZM363.816 91.184C368.052 94.3606 373.039 95.488 377.88 95.488V75.488C376.065 75.488 375.676 75.0794 375.816 75.184L363.816 91.184Z"
          fill="black"
          mask="url(#path-26-outside-7_0_1)"
        />
        <path
          d="M384 42.5002C382.656 41.7811 378.348 41.761 377.243 41.7813C375.275 41.8175 373.39 42.117 371.557 42.8238C368.868 43.8607 366.128 44.6951 363.909 46.6172C361.886 48.3684 360 50.5002 358.5 53.0002C356.5 55.5002 355.178 58.0002 354 60.5002C352.711 63.2376 351.679 65.7955 350.304 68.4881C349 72.0002 347.488 75.4818 346.617 79.0283C345.906 81.9199 344.839 84.0639 344.5 87.0002C344 89.0002 343.709 89.9376 343.5 91.5002C343.344 92.6671 342.832 94.8224 343 96.0002"
          stroke="#EEEEEE"
          strokeOpacity="0.5"
          strokeWidth="6"
          strokeLinecap="round"
          strokeLinejoin="round"
        />
        <path
          d="M388.5 67.5C391.369 71.5 391.748 74.389 391.869 75.2281C391.951 75.798 392 76.4231 392 77C392 78 391.912 78.3593 391.869 78.9279"
          stroke="#EEEEEE"
          strokeOpacity="0.5"
          strokeWidth="5"
          strokeLinecap="round"
        />
      </svg>